<svg width="183" height="50" viewBox="0 0 183 50" fill="none" xmlns="http://www.w3.org/2000/svg">
<path d="M65.0227 13.7273H71.0909L77.5 29.3636H77.7727L84.1818 13.7273H90.25V37H85.4773V21.8523H85.2841L79.2614 36.8864H76.0114L69.9886 21.7955H69.7955V37H65.0227V13.7273ZM99.1903 37.3295C98.0767 37.3295 97.0843 37.1364 96.2131 36.75C95.3419 36.3561 94.6525 35.7765 94.1449 35.0114C93.6449 34.2386 93.3949 33.2765 93.3949 32.125C93.3949 31.1553 93.5729 30.3409 93.929 29.6818C94.285 29.0227 94.7699 28.4924 95.3835 28.0909C95.9972 27.6894 96.6941 27.3864 97.4744 27.1818C98.2623 26.9773 99.0881 26.8333 99.9517 26.75C100.967 26.6439 101.785 26.5455 102.406 26.4545C103.027 26.3561 103.478 26.2121 103.759 26.0227C104.039 25.8333 104.179 25.553 104.179 25.1818V25.1136C104.179 24.3939 103.952 23.8371 103.497 23.4432C103.05 23.0492 102.414 22.8523 101.588 22.8523C100.717 22.8523 100.024 23.0455 99.5085 23.4318C98.9934 23.8106 98.6525 24.2879 98.4858 24.8636L94.0085 24.5C94.2358 23.4394 94.6828 22.5227 95.3494 21.75C96.0161 20.9697 96.8759 20.3712 97.929 19.9545C98.9896 19.5303 100.217 19.3182 101.611 19.3182C102.58 19.3182 103.509 19.4318 104.395 19.6591C105.289 19.8864 106.08 20.2386 106.77 20.7159C107.467 21.1932 108.016 21.8068 108.418 22.5568C108.819 23.2992 109.02 24.1894 109.02 25.2273V37H104.429V34.5795H104.293C104.012 35.125 103.637 35.6061 103.168 36.0227C102.698 36.4318 102.134 36.7538 101.474 36.9886C100.815 37.2159 100.054 37.3295 99.1903 37.3295ZM100.577 33.9886C101.289 33.9886 101.918 33.8485 102.463 33.5682C103.009 33.2803 103.437 32.8939 103.747 32.4091C104.058 31.9242 104.213 31.375 104.213 30.7614V28.9091C104.062 29.0076 103.853 29.0985 103.588 29.1818C103.33 29.2576 103.039 29.3295 102.713 29.3977C102.387 29.4583 102.062 29.5152 101.736 29.5682C101.41 29.6136 101.115 29.6553 100.849 29.6932C100.281 29.7765 99.785 29.9091 99.3608 30.0909C98.9366 30.2727 98.607 30.5189 98.3722 30.8295C98.1373 31.1326 98.0199 31.5114 98.0199 31.9659C98.0199 32.625 98.2585 33.1288 98.7358 33.4773C99.2206 33.8182 99.8343 33.9886 100.577 33.9886ZM120.662 37.3409C118.874 37.3409 117.336 36.9621 116.048 36.2045C114.768 35.4394 113.783 34.3788 113.094 33.0227C112.412 31.6667 112.071 30.1061 112.071 28.3409C112.071 26.553 112.416 24.9848 113.105 23.6364C113.802 22.2803 114.791 21.2235 116.071 20.4659C117.351 19.7008 118.874 19.3182 120.639 19.3182C122.162 19.3182 123.495 19.5947 124.639 20.1477C125.783 20.7008 126.688 21.4773 127.355 22.4773C128.022 23.4773 128.389 24.6515 128.457 26H123.889C123.76 25.1288 123.42 24.428 122.866 23.8977C122.321 23.3598 121.605 23.0909 120.719 23.0909C119.969 23.0909 119.313 23.2955 118.753 23.7045C118.2 24.1061 117.768 24.6932 117.457 25.4659C117.147 26.2386 116.991 27.1742 116.991 28.2727C116.991 29.3864 117.143 30.3333 117.446 31.1136C117.757 31.8939 118.192 32.4886 118.753 32.8977C119.313 33.3068 119.969 33.5114 120.719 33.5114C121.272 33.5114 121.768 33.3977 122.207 33.1705C122.654 32.9432 123.022 32.6136 123.31 32.1818C123.605 31.7424 123.798 31.2159 123.889 30.6023H128.457C128.382 31.9356 128.018 33.1098 127.366 34.125C126.723 35.1326 125.832 35.9205 124.696 36.4886C123.56 37.0568 122.215 37.3409 120.662 37.3409ZM131.648 37V13.7273H140.966C142.678 13.7273 144.106 13.9811 145.25 14.4886C146.394 14.9962 147.254 15.7008 147.83 16.6023C148.405 17.4962 148.693 18.5265 148.693 19.6932C148.693 20.6023 148.511 21.4015 148.148 22.0909C147.784 22.7727 147.284 23.3333 146.648 23.7727C146.019 24.2045 145.299 24.5114 144.489 24.6932V24.9205C145.375 24.9583 146.205 25.2083 146.977 25.6705C147.758 26.1326 148.39 26.7803 148.875 27.6136C149.36 28.4394 149.602 29.4242 149.602 30.5682C149.602 31.803 149.295 32.9053 148.682 33.875C148.076 34.8371 147.178 35.5985 145.989 36.1591C144.799 36.7197 143.333 37 141.591 37H131.648ZM136.568 32.9773H140.58C141.951 32.9773 142.951 32.7159 143.58 32.1932C144.208 31.6629 144.523 30.9583 144.523 30.0795C144.523 29.4356 144.367 28.8674 144.057 28.375C143.746 27.8826 143.303 27.4962 142.727 27.2159C142.159 26.9356 141.481 26.7955 140.693 26.7955H136.568V32.9773ZM136.568 23.4659H140.216C140.89 23.4659 141.489 23.3485 142.011 23.1136C142.542 22.8712 142.958 22.5303 143.261 22.0909C143.572 21.6515 143.727 21.125 143.727 20.5114C143.727 19.6705 143.428 18.9924 142.83 18.4773C142.239 17.9621 141.398 17.7045 140.307 17.7045H136.568V23.4659ZM152.713 37V19.5455H157.406V22.5909H157.588C157.906 21.5076 158.44 20.6894 159.19 20.1364C159.94 19.5758 160.804 19.2955 161.781 19.2955C162.024 19.2955 162.285 19.3106 162.565 19.3409C162.846 19.3712 163.092 19.4129 163.304 19.4659V23.7614C163.077 23.6932 162.762 23.6326 162.361 23.5795C161.959 23.5265 161.592 23.5 161.259 23.5C160.546 23.5 159.91 23.6553 159.349 23.9659C158.796 24.2689 158.357 24.6932 158.031 25.2386C157.713 25.7841 157.554 26.4129 157.554 27.125V37H152.713ZM172.881 37.3409C171.116 37.3409 169.589 36.9659 168.301 36.2159C167.021 35.4583 166.032 34.4053 165.335 33.0568C164.638 31.7008 164.29 30.1288 164.29 28.3409C164.29 26.5379 164.638 24.9621 165.335 23.6136C166.032 22.2576 167.021 21.2045 168.301 20.4545C169.589 19.697 171.116 19.3182 172.881 19.3182C174.646 19.3182 176.169 19.697 177.449 20.4545C178.737 21.2045 179.729 22.2576 180.426 23.6136C181.123 24.9621 181.472 26.5379 181.472 28.3409C181.472 30.1288 181.123 31.7008 180.426 33.0568C179.729 34.4053 178.737 35.4583 177.449 36.2159C176.169 36.9659 174.646 37.3409 172.881 37.3409ZM172.903 33.5909C173.706 33.5909 174.377 33.3636 174.915 32.9091C175.453 32.447 175.858 31.8182 176.131 31.0227C176.411 30.2273 176.551 29.322 176.551 28.3068C176.551 27.2917 176.411 26.3864 176.131 25.5909C175.858 24.7955 175.453 24.1667 174.915 23.7045C174.377 23.2424 173.706 23.0114 172.903 23.0114C172.093 23.0114 171.411 23.2424 170.858 23.7045C170.313 24.1667 169.9 24.7955 169.619 25.5909C169.347 26.3864 169.21 27.2917 169.21 28.3068C169.21 29.322 169.347 30.2273 169.619 31.0227C169.9 31.8182 170.313 32.447 170.858 32.9091C171.411 33.3636 172.093 33.5909 172.903 33.5909Z" fill="#2E312F"/>
<path d="M35.5208 42.25C33.4792 44.2292 31.25 43.9167 29.1042 42.9792C26.8333 42.0208 24.75 41.9792 22.3542 42.9792C19.3542 44.2708 17.7708 43.8958 15.9792 42.25C5.81252 31.7708 7.31252 15.8125 18.8542 15.2292C21.6667 15.375 23.625 16.7708 25.2708 16.8958C27.7292 16.3958 30.0833 14.9583 32.7083 15.1458C35.8542 15.3958 38.2292 16.6458 39.7917 18.8958C33.2917 22.7917 34.8333 31.3542 40.7917 33.75C39.6042 36.875 38.0625 39.9792 35.5 42.2708L35.5208 42.25V42.25ZM25.0625 15.1042C24.75 10.4583 28.5208 6.625 32.8542 6.25C33.4583 11.625 27.9792 15.625 25.0625 15.1042Z" fill="#2E312F"/>
</svg>
