<svg width="16" height="16" viewBox="0 0 16 16" fill="none" xmlns="http://www.w3.org/2000/svg">
<path d="M1.76075 5.67858C3.56349 4.17458 5.63889 3.33333 7.83368 3.33333C10.0285 3.33333 12.1039 4.17458 13.9066 5.67858C14.1893 5.91444 14.6097 5.87646 14.8456 5.59374C15.0815 5.31102 15.0435 4.89063 14.7608 4.65476C12.7562 2.98237 10.3866 2 7.83368 2C5.28071 2 2.91118 2.98237 0.906599 4.65476C0.62388 4.89063 0.585899 5.31102 0.821767 5.59374C1.05763 5.87646 1.47803 5.91444 1.76075 5.67858Z" fill="#424551"/>
<path fill-rule="evenodd" clip-rule="evenodd" d="M2.73418 6.45935C3.9332 5.44709 5.64329 4.5 7.58366 4.5C9.52403 4.5 11.2341 5.44709 12.4331 6.45935C13.0376 6.96963 13.5331 7.51363 13.8833 7.99952C14.0581 8.24199 14.2038 8.47992 14.3087 8.70052C14.4051 8.90315 14.5003 9.15887 14.5003 9.41667C14.5003 9.67447 14.4051 9.93019 14.3087 10.1328C14.2038 10.3534 14.0581 10.5913 13.8833 10.8338C13.5331 11.3197 13.0376 11.8637 12.4331 12.374C11.2341 13.3862 9.52403 14.3333 7.58366 14.3333C5.64329 14.3333 3.9332 13.3862 2.73418 12.374C2.12976 11.8637 1.63419 11.3197 1.28399 10.8338C1.10923 10.5913 0.963482 10.3534 0.858578 10.1328C0.762219 9.93019 0.666992 9.67447 0.666992 9.41667C0.666992 9.15887 0.762219 8.90315 0.858578 8.70052C0.963482 8.47992 1.10923 8.24199 1.28399 7.99952C1.63419 7.51363 2.12976 6.96963 2.73418 6.45935ZM2.00505 9.41667C2.0118 9.43924 2.02736 9.4859 2.0627 9.56021C2.1243 9.68976 2.22413 9.85786 2.36564 10.0542C2.64797 10.4459 3.0677 10.9106 3.5943 11.3552C4.65734 12.2526 6.07225 13 7.58366 13C9.09507 13 10.51 12.2526 11.573 11.3552C12.0996 10.9106 12.5193 10.4459 12.8017 10.0542C12.9432 9.85786 13.043 9.68976 13.1046 9.56021C13.14 9.4859 13.1555 9.43924 13.1623 9.41666C13.1555 9.39409 13.14 9.34743 13.1046 9.27312C13.043 9.14357 12.9432 8.97547 12.8017 8.77913C12.5193 8.38742 12.0996 7.92274 11.573 7.47816C11.3494 7.28939 11.1103 7.10726 10.8579 6.93733C10.9506 7.24756 11.0003 7.5763 11.0003 7.91667C11.0003 9.80364 9.47063 11.3333 7.58366 11.3333C5.69669 11.3333 4.16699 9.80364 4.16699 7.91667C4.16699 7.5763 4.21676 7.24756 4.30942 6.93733C4.05706 7.10726 3.8179 7.28939 3.5943 7.47816C3.0677 7.92274 2.64797 8.38742 2.36564 8.77913C2.22413 8.97547 2.1243 9.14357 2.0627 9.27312C2.02736 9.34743 2.0118 9.39409 2.00505 9.41667ZM5.50033 7.91667C5.50033 6.76607 6.43307 5.83333 7.58366 5.83333C8.73425 5.83333 9.66699 6.76607 9.66699 7.91667C9.66699 9.06726 8.73425 10 7.58366 10C6.43307 10 5.50033 9.06726 5.50033 7.91667Z" fill="#424551"/>
</svg>
