<svg width="1920" height="246" viewBox="0 0 1920 246" fill="none" xmlns="http://www.w3.org/2000/svg">
<g clip-path="url(#clip0_4752_2358)">
<path d="M1903 211.79V246.001H1851.54L1861.56 193.467C1861.24 195.541 1867.66 199.429 1876.44 203.329C1879.6 204.728 1883.11 206.118 1886.87 207.435C1892.92 209.571 1898.5 211.023 1903 211.79C1903 211.79 1902.99 211.79 1903 211.79Z" fill="#9A3B82"/>
<path d="M1903 201.503V210.659C1898.5 209.892 1892.93 208.451 1886.86 206.314C1872.53 201.285 1861.51 195.073 1862.13 192.284C1862.14 192.242 1862.15 192.201 1862.16 192.17C1863.13 189.443 1875.81 191.33 1890.33 196.422C1895 198.06 1899.21 199.75 1902.74 201.378C1902.83 201.42 1902.91 201.461 1903 201.503Z" fill="#FFCF2D"/>
<path d="M1895.94 122.236C1890.92 122.236 1886.86 126.301 1886.86 131.31V156.177C1886.86 161.186 1882.79 165.251 1877.78 165.251H1841.4C1846.42 165.251 1850.48 161.186 1850.48 156.177V131.31C1850.48 126.291 1854.54 122.236 1859.55 122.236H1895.94Z" fill="white"/>
<path fill-rule="evenodd" clip-rule="evenodd" d="M1859.55 122.495C1854.68 122.495 1850.74 126.434 1850.74 131.309V156.176C1850.74 160.251 1848.13 163.719 1844.48 164.991H1877.78C1882.65 164.991 1886.6 161.042 1886.6 156.176V131.309C1886.6 127.234 1889.21 123.766 1892.86 122.495H1859.55ZM1895.94 121.977H1859.55C1854.4 121.977 1850.22 126.147 1850.22 131.309V156.176C1850.22 161.042 1846.28 164.991 1841.4 164.991V165.509H1877.78C1882.93 165.509 1887.11 161.328 1887.11 156.176V131.309C1887.11 126.444 1891.06 122.495 1895.94 122.495V121.977Z" fill="#FFCF2D"/>
<path d="M1880.03 135.105H1856.86V156.602H1880.03V135.105Z" fill="white"/>
<path fill-rule="evenodd" clip-rule="evenodd" d="M1856.61 134.846H1880.29V156.861H1856.61V134.846ZM1857.12 135.364V156.342H1879.77V135.364H1857.12Z" fill="#FFCF2D"/>
<path fill-rule="evenodd" clip-rule="evenodd" d="M1856.86 137.916H1880.02V138.435H1856.86V137.916Z" fill="#FFCF2D"/>
<path fill-rule="evenodd" clip-rule="evenodd" d="M1856.86 140.984H1880.02V141.503H1856.86V140.984Z" fill="#FFCF2D"/>
<path fill-rule="evenodd" clip-rule="evenodd" d="M1856.86 144.064H1880.02V144.583H1856.86V144.064Z" fill="#FFCF2D"/>
<path fill-rule="evenodd" clip-rule="evenodd" d="M1856.86 147.135H1880.02V147.653H1856.86V147.135Z" fill="#FFCF2D"/>
<path fill-rule="evenodd" clip-rule="evenodd" d="M1856.86 150.215H1880.02V150.733H1856.86V150.215Z" fill="#FFCF2D"/>
<path fill-rule="evenodd" clip-rule="evenodd" d="M1856.86 153.283H1880.02V153.802H1856.86V153.283Z" fill="#FFCF2D"/>
<path d="M1886.86 131.31C1886.86 126.322 1890.88 122.278 1895.85 122.236C1900.83 122.278 1904.84 126.322 1904.84 131.31H1886.86Z" fill="#66B0F0"/>
<path fill-rule="evenodd" clip-rule="evenodd" d="M1895.85 121.977L1895.85 121.977C1900.97 122.019 1905.1 126.179 1905.1 131.309V131.569H1886.6V131.309C1886.6 126.179 1890.74 122.019 1895.85 121.977L1895.85 121.977ZM1895.85 122.495C1891.11 122.536 1887.26 126.325 1887.12 131.05H1904.58C1904.44 126.325 1900.6 122.536 1895.85 122.495Z" fill="#FFCF2D"/>
<path d="M1877.82 165.479C1877.81 165.479 1877.79 165.479 1877.78 165.479H1841.54C1841.52 165.479 1841.5 165.479 1841.48 165.479C1837.75 165.427 1834.57 163.125 1833.22 159.869H1869.54C1870.9 163.125 1874.08 165.427 1877.82 165.479Z" fill="#FFCF2D"/>
<path d="M1858.38 132.635H1854.19V129.275H1856.16V131.142C1856.16 131.183 1856.18 131.215 1856.2 131.225L1856.21 131.235L1858.38 132.635Z" fill="#FE5244"/>
<path d="M1860.01 130.438V130.884C1860.01 130.967 1860 131.05 1860 131.133C1860 131.154 1859.99 131.185 1859.99 131.205C1859.98 131.247 1859.98 131.288 1859.97 131.33C1859.85 131.9 1859.51 132.367 1859.08 132.543C1859.05 132.554 1859.02 132.564 1858.99 132.574C1858.94 132.595 1858.88 132.605 1858.83 132.616C1858.8 132.616 1858.78 132.626 1858.76 132.626L1856.39 131.081C1856.41 130.718 1856.64 130.428 1856.91 130.428H1860.01V130.438Z" fill="#FE5244"/>
<path d="M1883.14 129.275V132.635H1878.95L1881.11 131.235L1881.12 131.225C1881.13 131.215 1881.13 131.215 1881.14 131.215C1881.14 131.204 1881.15 131.204 1881.15 131.194C1881.15 131.194 1881.15 131.183 1881.16 131.183C1881.16 131.173 1881.16 131.173 1881.17 131.173C1881.17 131.173 1881.17 131.173 1881.17 131.163C1881.17 131.152 1881.17 131.152 1881.17 131.142V129.275H1883.14Z" fill="#FE5244"/>
<path d="M1880.97 131.092L1878.59 132.638C1878.53 132.627 1878.47 132.617 1878.4 132.606C1878.38 132.596 1878.36 132.596 1878.34 132.586C1878.31 132.575 1878.29 132.565 1878.26 132.555C1878.24 132.544 1878.21 132.534 1878.19 132.523C1877.86 132.347 1877.6 132.005 1877.46 131.58C1877.44 131.518 1877.42 131.455 1877.41 131.393C1877.4 131.372 1877.4 131.341 1877.39 131.31C1877.37 131.175 1877.35 131.041 1877.35 130.895V130.449H1880.46C1880.72 130.439 1880.94 130.729 1880.97 131.092Z" fill="#FE5244"/>
<path d="M1880.97 127.576V130.501C1880.95 130.48 1880.93 130.449 1880.9 130.428C1880.86 130.387 1880.82 130.355 1880.78 130.324C1880.68 130.262 1880.56 130.221 1880.45 130.221H1856.9C1856.77 130.221 1856.66 130.262 1856.57 130.324C1856.52 130.355 1856.48 130.387 1856.44 130.428C1856.42 130.449 1856.4 130.469 1856.38 130.501V127.576C1856.38 127.182 1856.61 126.871 1856.9 126.871H1880.45C1880.73 126.871 1880.97 127.193 1880.97 127.576Z" fill="#FE5244"/>
<path d="M1903 170.011V210.66H1902.99C1898.49 209.893 1892.92 208.452 1886.85 206.315C1883.09 204.998 1879.58 203.599 1876.42 202.209L1878.11 192.772L1880.99 176.751C1871.97 173.93 1870.51 165.261 1870.51 165.261H1877.76C1882.78 165.261 1886.84 161.196 1886.84 156.188V153.201H1882.18C1878.91 153.201 1876.26 149.986 1876.26 146.72V145.662H1886.61C1888.53 145.662 1890.33 146.564 1891.48 148.099L1899.05 158.21C1901.62 161.611 1903 165.749 1903 170.011Z" fill="#A0505A"/>
<path d="M1903 201.503V210.66H1902.99C1898.49 209.892 1892.92 208.451 1886.85 206.315C1883.09 204.998 1879.58 203.598 1876.42 202.208L1878.11 192.771C1881.85 193.684 1886 194.918 1890.31 196.432C1894.98 198.07 1899.19 199.761 1902.71 201.389C1902.83 201.42 1902.91 201.461 1903 201.503Z" fill="#73325A"/>
<path d="M1887.31 153.201H1882.31C1879.05 153.201 1876.39 149.986 1876.39 146.72V145.662H1887.31V153.201Z" fill="#A0505A"/>
<path fill-rule="evenodd" clip-rule="evenodd" d="M1884.08 163.544C1884.08 163.544 1884.08 163.544 1884.17 163.301C1884.26 163.058 1884.26 163.059 1884.26 163.059L1884.26 163.059L1884.26 163.059L1884.27 163.061C1884.27 163.063 1884.28 163.065 1884.29 163.068C1884.3 163.074 1884.32 163.083 1884.35 163.095C1884.41 163.118 1884.49 163.153 1884.59 163.201C1884.8 163.296 1885.09 163.441 1885.44 163.645C1886.14 164.053 1887.08 164.694 1888.04 165.632C1889.96 167.509 1891.96 170.569 1892.29 175.291L1891.77 175.328C1891.45 170.748 1889.52 167.804 1887.68 166.003C1886.75 165.101 1885.85 164.484 1885.18 164.093C1884.84 163.898 1884.56 163.76 1884.37 163.671C1884.28 163.626 1884.2 163.594 1884.15 163.573C1884.13 163.563 1884.11 163.555 1884.1 163.55C1884.09 163.548 1884.09 163.546 1884.08 163.545L1884.08 163.544L1884.08 163.544ZM1884.08 163.544C1884.08 163.544 1884.08 163.544 1884.08 163.544L1884.08 163.544Z" fill="#73325A"/>
<path fill-rule="evenodd" clip-rule="evenodd" d="M1885.91 177.227H1881.01V176.709H1885.91V177.227Z" fill="#73325A"/>
<path fill-rule="evenodd" clip-rule="evenodd" d="M1889.83 63.6303C1889.45 58.7542 1883.98 56.0837 1879.89 58.7841L1876.61 60.9616L1876.26 60.4429L1879.55 58.265C1884.03 55.3034 1890.03 58.2327 1890.45 63.5813L1891.17 72.6341C1891.17 72.6341 1891.17 72.6341 1891.17 72.6341C1891.55 77.3717 1896.76 80.0718 1900.84 77.6486L1902.92 76.4148L1903.23 76.9495L1901.16 78.1836L1901.16 78.1838C1896.68 80.8419 1890.96 77.88 1890.55 72.6833L1889.83 63.6303Z" fill="#FFCF2D"/>
<path d="M1828.66 27.0723L1870.9 51.5866L1892.17 99.3399L1867.76 82.9037L1841.25 51.8355L1828.66 27.0723Z" fill="#9A3B82"/>
<path fill-rule="evenodd" clip-rule="evenodd" d="M1871.66 50.6851L1828.62 25.6924L1828.93 25.1543L1872.15 50.2481L1893.91 99.0991L1893.34 99.3523L1871.66 50.6851Z" fill="#FFCF2D"/>
<path d="M1867.32 83.9581C1869.3 82.2919 1864.86 73.7929 1857.42 64.975C1849.97 56.1572 1842.34 50.3597 1840.36 52.026C1838.39 53.6922 1842.82 62.1912 1850.27 71.0091C1857.71 79.8269 1865.35 85.6244 1867.32 83.9581Z" fill="white"/>
<path d="M1866.12 84.4667C1868.06 82.8337 1863.71 74.5 1856.41 65.8528C1849.11 57.2057 1841.62 51.5196 1839.69 53.1526C1837.75 54.7856 1842.1 63.1193 1849.4 71.7664C1856.7 80.4136 1864.19 86.0997 1866.12 84.4667Z" fill="white"/>
<path fill-rule="evenodd" clip-rule="evenodd" d="M1841.31 59.7108C1843.06 63.0579 1845.96 67.2873 1849.6 71.6008C1853.24 75.9143 1856.93 79.483 1859.93 81.7667C1861.44 82.9099 1862.76 83.7222 1863.82 84.1483C1864.35 84.3615 1864.8 84.4726 1865.16 84.487C1865.52 84.5014 1865.78 84.4201 1865.96 84.2702C1866.13 84.1202 1866.26 83.8798 1866.3 83.521C1866.35 83.1603 1866.32 82.6992 1866.19 82.1422C1865.95 81.0286 1865.37 79.5871 1864.5 77.9116C1862.75 74.5645 1859.85 70.3351 1856.21 66.0216C1852.57 61.7081 1848.88 58.1394 1845.88 55.8556C1844.37 54.7125 1843.05 53.9002 1841.99 53.4741C1841.46 53.2609 1841.01 53.1498 1840.65 53.1354C1840.29 53.121 1840.03 53.2022 1839.85 53.3522C1839.67 53.5022 1839.55 53.7426 1839.5 54.1014C1839.46 54.4621 1839.49 54.9232 1839.61 55.4802C1839.86 56.5937 1840.44 58.0353 1841.31 59.7108ZM1838.99 54.0348C1839.05 53.5915 1839.21 53.2143 1839.52 52.956C1839.82 52.6978 1840.22 52.5995 1840.67 52.6173C1841.11 52.635 1841.63 52.7678 1842.18 52.9932C1843.3 53.4442 1844.67 54.2876 1846.19 55.4428C1849.24 57.7556 1852.95 61.3535 1856.6 65.6872C1860.26 70.0208 1863.19 74.2819 1864.96 77.6717C1865.84 79.3647 1866.44 80.8531 1866.7 82.0317C1866.83 82.6207 1866.88 83.1461 1866.82 83.5875C1866.76 84.0309 1866.6 84.4081 1866.29 84.6664C1865.98 84.9246 1865.59 85.0229 1865.14 85.0051C1864.69 84.9874 1864.18 84.8546 1863.62 84.6292C1862.51 84.1782 1861.14 83.3348 1859.62 82.1796C1856.57 79.8668 1852.86 76.2689 1849.2 71.9352C1845.54 67.6016 1842.62 63.3405 1840.85 59.9507C1839.97 58.2577 1839.36 56.7692 1839.11 55.5907C1838.98 55.0017 1838.93 54.4763 1838.99 54.0348Z" fill="#FFCF2D"/>
<path d="M1871.27 80.6023L1867.25 83.9932C1867.99 83.3606 1867.83 81.7637 1866.92 79.5342C1865.44 75.8632 1861.97 70.502 1857.34 65.006C1852.71 59.5203 1848 55.1961 1844.63 53.1221C1842.59 51.857 1841.03 51.4214 1840.28 52.054L1844.31 48.6631C1846.28 46.9935 1854.26 52.4481 1861.71 61.2728C1869.15 70.0976 1873.25 78.9431 1871.27 80.6023Z" fill="#FFCF2D"/>
<path d="M1914.25 67.6289C1915.4 67.0793 1916.5 66.5919 1917.57 66.1875C1918.21 66.8512 1918.76 67.6289 1919.18 68.5C1919.61 69.371 1919.88 70.2836 1920 71.1858C1919.01 71.7665 1917.95 72.3472 1916.82 72.8968C1911.14 75.6448 1905.98 76.6922 1905.27 75.2404C1904.56 73.7782 1908.58 70.3769 1914.25 67.6289Z" fill="#FFCF2D"/>
<path fill-rule="evenodd" clip-rule="evenodd" d="M1904.24 75.0109C1903.72 75.0109 1903.29 75.4333 1903.29 75.9545C1903.29 76.4757 1903.72 76.8982 1904.24 76.8982C1904.76 76.8982 1905.18 76.4757 1905.18 75.9545C1905.18 75.4333 1904.76 75.0109 1904.24 75.0109ZM1902.67 75.9545C1902.67 75.0897 1903.37 74.3887 1904.24 74.3887C1905.1 74.3887 1905.8 75.0897 1905.8 75.9545C1905.8 76.8193 1905.1 77.5203 1904.24 77.5203C1903.37 77.5203 1902.67 76.8193 1902.67 75.9545Z" fill="#9A3B82"/>
<path d="M1830.18 202.095V246.001H1780.17L1786.57 198.32C1786.57 200.249 1796.33 202.655 1808.37 203.692C1820.41 204.739 1830.18 204.024 1830.18 202.095Z" fill="#66B0F0"/>
<path d="M1829.95 200.965C1829.95 202.894 1820.28 203.609 1808.35 202.562C1796.43 201.515 1786.75 199.109 1786.75 197.19C1786.75 195.262 1796.43 194.546 1808.35 195.594C1820.29 196.631 1829.95 199.036 1829.95 200.965Z" fill="#3FB1B5"/>
<path fill-rule="evenodd" clip-rule="evenodd" d="M1839.74 105.846L1836.72 103.893L1837.06 103.371L1840.1 105.338L1840.11 105.346C1840.99 106.029 1841.3 107.259 1841.2 108.768C1841.1 110.291 1840.59 112.184 1839.74 114.315C1838.03 118.579 1834.92 123.862 1830.81 129.156C1826.7 134.456 1822.36 138.785 1818.65 141.499C1816.8 142.854 1815.1 143.818 1813.65 144.292C1812.21 144.762 1810.94 144.775 1810.06 144.093L1810.05 144.083L1808.54 142.662L1808.97 142.21L1810.45 143.609C1811.09 144.091 1812.09 144.147 1813.45 143.7C1814.82 143.255 1816.46 142.333 1818.29 140.997C1821.93 138.326 1826.24 134.042 1830.32 128.775L1830.32 128.775C1834.4 123.513 1837.48 118.281 1839.16 114.084C1840 111.983 1840.49 110.159 1840.58 108.729C1840.67 107.293 1840.36 106.338 1839.74 105.846Z" fill="#66B0F0"/>
<path d="M1794.84 152.827L1829.22 121.365L1841.24 84.7695L1804.55 118.109L1794.84 152.827Z" fill="#66B0F0"/>
<path fill-rule="evenodd" clip-rule="evenodd" d="M1842.81 84.9316C1842.97 84.9852 1843.06 85.161 1843 85.3242L1830.77 122.578L1793.3 156.874C1793.17 156.99 1792.97 156.981 1792.86 156.855C1792.74 156.728 1792.75 156.531 1792.88 156.415L1830.23 122.229L1842.41 85.1302C1842.47 84.9669 1842.64 84.878 1842.81 84.9316Z" fill="#FE5244"/>
<path fill-rule="evenodd" clip-rule="evenodd" d="M1780.01 152.261L1812.66 121.037L1813.09 121.487L1780.44 152.71L1780.44 152.711C1778.64 154.435 1775.68 152.805 1776.19 150.349L1777.1 145.921L1777.1 145.921C1777.46 144.198 1775.5 142.939 1774.09 143.974L1774.08 143.975L1763.3 151.825L1762.93 151.322L1773.72 143.472C1773.72 143.472 1773.72 143.472 1773.72 143.472M1777.71 146.047C1778.18 143.767 1775.6 142.101 1773.72 143.472L1777.71 146.047ZM1777.71 146.047L1776.8 150.474L1776.8 150.475C1776.42 152.332 1778.65 153.564 1780.01 152.261L1780.01 152.261" fill="#FE5244"/>
<path d="M1754.33 162.751C1753.37 163.56 1752.4 164.307 1751.47 164.96C1750.69 164.473 1749.98 163.861 1749.34 163.114C1748.72 162.368 1748.24 161.559 1747.89 160.708C1748.7 159.9 1749.59 159.08 1750.56 158.261C1755.38 154.206 1760.13 151.915 1761.18 153.159C1762.21 154.403 1759.16 158.697 1754.33 162.751Z" fill="#FFCF2D"/>
<path fill-rule="evenodd" clip-rule="evenodd" d="M1762.11 151.386C1761.59 151.386 1761.17 151.808 1761.17 152.33C1761.17 152.851 1761.59 153.273 1762.11 153.273C1762.63 153.273 1763.06 152.851 1763.06 152.33C1763.06 151.808 1762.63 151.386 1762.11 151.386ZM1760.55 152.33C1760.55 151.465 1761.25 150.764 1762.11 150.764C1762.98 150.764 1763.68 151.465 1763.68 152.33C1763.68 153.194 1762.98 153.895 1762.11 153.895C1761.25 153.895 1760.55 153.194 1760.55 152.33Z" fill="#FE5244"/>
<path d="M1814.42 169.046V202.955C1812.5 202.872 1810.46 202.748 1808.35 202.561C1800.59 201.887 1793.78 200.622 1789.98 199.295L1790.55 195.541L1792.46 182.941H1789.99C1786.47 182.941 1783.63 180.1 1783.63 176.585V164.099C1783.63 161.631 1784.52 159.257 1786.15 157.4L1794.27 148.119C1794.8 147.518 1795.79 147.891 1795.79 148.69V161.31C1795.79 162.824 1795.26 164.286 1794.27 165.437L1793.54 166.287H1802.36C1803.63 166.287 1804.38 164.867 1803.67 163.809C1802.58 162.222 1801.15 159.962 1799.79 157.348C1797.08 152.174 1801.78 149.281 1801.78 149.281L1812.53 163.228C1813.76 164.918 1814.42 166.961 1814.42 169.046Z" fill="#FFCF2D"/>
<path fill-rule="evenodd" clip-rule="evenodd" d="M1795.79 147.756C1795.94 147.756 1796.05 147.872 1796.05 148.015V161.309C1796.05 162.885 1795.49 164.407 1794.47 165.605L1794.47 165.605M1794.47 165.605L1793.74 166.455C1793.65 166.564 1793.48 166.577 1793.38 166.484C1793.27 166.391 1793.25 166.227 1793.35 166.119L1794.07 165.268L1794.07 165.268C1795.02 164.164 1795.54 162.762 1795.54 161.309V148.015C1795.54 147.872 1795.65 147.756 1795.79 147.756" fill="white"/>
<path fill-rule="evenodd" clip-rule="evenodd" d="M1793.72 166.083C1793.82 166.178 1793.83 166.342 1793.74 166.449L1787.91 172.993C1787.81 173.1 1787.65 173.109 1787.54 173.014C1787.44 172.919 1787.43 172.755 1787.52 172.648L1793.35 166.104C1793.45 165.997 1793.61 165.988 1793.72 166.083Z" fill="white"/>
<path fill-rule="evenodd" clip-rule="evenodd" d="M1795.79 155.273C1795.94 155.273 1796.05 155.39 1796.05 155.533C1796.05 157.108 1795.49 158.63 1794.47 159.828C1794.47 159.828 1794.47 159.828 1794.47 159.828L1793.74 160.681L1787.92 167.216C1787.82 167.323 1787.66 167.332 1787.55 167.237C1787.45 167.142 1787.44 166.978 1787.53 166.871L1793.35 160.34L1794.07 159.491C1795.02 158.387 1795.53 156.985 1795.53 155.533C1795.53 155.39 1795.65 155.273 1795.79 155.273Z" fill="white"/>
<path fill-rule="evenodd" clip-rule="evenodd" d="M1795.79 149.508C1795.94 149.508 1796.05 149.624 1796.05 149.767C1796.05 151.343 1795.49 152.865 1794.47 154.063C1794.47 154.063 1794.47 154.063 1794.47 154.063L1793.74 154.915L1787.92 161.45C1787.82 161.557 1787.66 161.566 1787.55 161.471C1787.45 161.376 1787.44 161.212 1787.53 161.105L1793.35 154.574L1794.07 153.726C1795.02 152.622 1795.54 151.219 1795.54 149.767C1795.54 149.624 1795.65 149.508 1795.79 149.508Z" fill="white"/>
<path fill-rule="evenodd" clip-rule="evenodd" d="M1792.19 183.283C1792.19 183.14 1792.31 183.023 1792.45 183.023H1796.92C1797.07 183.023 1797.18 183.14 1797.18 183.283C1797.18 183.426 1797.07 183.542 1796.92 183.542H1792.45C1792.31 183.542 1792.19 183.426 1792.19 183.283Z" fill="white"/>
<path d="M1814.42 196.255V202.954C1812.5 202.871 1810.46 202.747 1808.35 202.56C1800.59 201.886 1793.78 200.621 1789.98 199.294L1790.55 195.54C1794.45 194.969 1800.97 194.938 1808.36 195.581C1810.46 195.778 1812.49 195.996 1814.42 196.255Z" fill="#FE5244"/>
<path d="M1764.23 245.998H1706.39V188.663C1706.39 191.11 1715.9 193.091 1727.64 193.091C1739.38 193.091 1748.89 191.11 1748.89 188.663V188.652L1764.23 245.998Z" fill="#3FB1B5"/>
<path d="M1748.73 187.523C1748.73 189.981 1739.33 191.961 1727.71 191.961C1716.1 191.961 1706.69 189.981 1706.69 187.533V187.523C1706.72 185.086 1716.12 183.105 1727.71 183.105C1739.31 183.105 1748.71 185.086 1748.73 187.523Z" fill="#66B0F0"/>
<path d="M1748.73 187.566C1748.66 189.993 1739.28 191.963 1727.71 191.963C1725.48 191.963 1723.35 191.89 1721.33 191.756V170.425H1710.36C1708.96 170.425 1707.83 169.295 1707.83 167.895V166.184C1707.83 165.416 1708.17 164.732 1708.71 164.265C1708.17 163.798 1707.83 163.114 1707.83 162.347V160.636C1707.83 159.962 1708.1 159.339 1708.54 158.894C1708.1 158.437 1707.83 157.825 1707.83 157.151V155.44C1707.83 154.746 1708.11 154.113 1708.57 153.646C1708.11 153.19 1707.83 152.558 1707.83 151.863V148.762C1707.83 147.362 1708.96 146.232 1710.36 146.232H1724.37C1724.84 145.962 1725.6 145.008 1724.31 144.448L1721.3 143.743C1718.92 142.551 1717.4 140.57 1717.4 137.895H1727.98C1729.76 137.895 1731.34 139.014 1731.94 140.684L1748.47 186.83L1748.73 187.566Z" fill="#E57281"/>
<path d="M1748.78 187.587C1748.75 187.555 1748.73 187.535 1748.73 187.535C1748.73 189.982 1739.33 191.963 1727.71 191.963C1725.48 191.963 1723.35 191.89 1721.33 191.755V183.325C1723.35 183.19 1725.49 183.117 1727.71 183.117C1738.19 183.117 1746.88 184.735 1748.47 186.84C1748.52 186.892 1748.63 187.172 1748.78 187.587Z" fill="#9A3B82"/>
<path d="M1724.61 117.402V125.812C1724.61 130.385 1720.91 134.087 1716.34 134.087C1711.76 134.087 1708.06 130.385 1708.06 125.812V117.402C1708.06 119.456 1711.76 121.115 1716.34 121.115C1720.91 121.115 1724.61 119.456 1724.61 117.402Z" fill="white"/>
<path d="M1716.34 121.114C1720.91 121.114 1724.61 119.452 1724.61 117.402C1724.61 115.352 1720.91 113.689 1716.34 113.689C1711.77 113.689 1708.06 115.352 1708.06 117.402C1708.06 119.452 1711.77 121.114 1716.34 121.114Z" fill="#FFCF2D"/>
<path fill-rule="evenodd" clip-rule="evenodd" d="M1707.75 102.719H1724.92V125.802C1724.92 128.987 1723.19 131.763 1720.62 133.247L1720.46 132.978C1720.46 132.984 1720.46 132.99 1720.46 132.996L1720.61 133.248C1719.35 133.969 1717.89 134.388 1716.34 134.388C1714.81 134.388 1713.38 133.991 1712.13 133.289H1712.13L1712.08 133.263C1712.08 133.26 1712.07 133.257 1712.06 133.254C1712.06 133.252 1712.06 133.251 1712.06 133.249L1712.05 133.247C1709.48 131.763 1707.75 128.987 1707.75 125.802V102.719ZM1720.38 132.667C1722.73 131.279 1724.3 128.726 1724.3 125.802V103.341H1708.37V125.802C1708.37 128.734 1709.95 131.292 1712.31 132.677H1712.31L1712.36 132.702C1712.36 132.706 1712.37 132.709 1712.38 132.713C1712.38 132.714 1712.38 132.716 1712.38 132.717L1712.39 132.718C1713.55 133.387 1714.9 133.766 1716.34 133.766C1717.77 133.766 1719.13 133.377 1720.3 132.708L1720.37 132.667H1720.38Z" fill="#FFCF2D"/>
<path d="M1716.34 106.743C1720.96 106.743 1724.71 105.081 1724.71 103.031C1724.71 100.98 1720.96 99.3184 1716.34 99.3184C1711.72 99.3184 1707.97 100.98 1707.97 103.031C1707.97 105.081 1711.72 106.743 1716.34 106.743Z" fill="white"/>
<path fill-rule="evenodd" clip-rule="evenodd" d="M1708.81 101.764C1708.42 102.175 1708.23 102.602 1708.23 103.03C1708.23 103.458 1708.42 103.886 1708.81 104.296C1709.21 104.708 1709.79 105.091 1710.52 105.418C1712 106.072 1714.05 106.483 1716.34 106.483C1718.62 106.483 1720.68 106.072 1722.15 105.418C1722.89 105.091 1723.47 104.708 1723.86 104.296C1724.25 103.886 1724.45 103.458 1724.45 103.03C1724.45 102.602 1724.25 102.175 1723.86 101.764C1723.47 101.352 1722.89 100.969 1722.15 100.642C1720.68 99.9882 1718.62 99.5771 1716.34 99.5771C1714.05 99.5771 1712 99.9882 1710.52 100.642C1709.79 100.969 1709.21 101.352 1708.81 101.764ZM1710.31 100.168C1711.87 99.4786 1714 99.0586 1716.34 99.0586C1718.68 99.0586 1720.81 99.4786 1722.36 100.168C1723.14 100.513 1723.78 100.93 1724.24 101.406C1724.69 101.884 1724.97 102.433 1724.97 103.03C1724.97 103.627 1724.69 104.177 1724.24 104.654C1723.78 105.13 1723.14 105.548 1722.36 105.892C1720.81 106.582 1718.68 107.002 1716.34 107.002C1714 107.002 1711.87 106.582 1710.31 105.892C1709.54 105.548 1708.89 105.13 1708.44 104.654C1707.98 104.177 1707.71 103.627 1707.71 103.03C1707.71 102.433 1707.98 101.884 1708.44 101.406C1708.89 100.93 1709.54 100.513 1710.31 100.168Z" fill="#FFCF2D"/>
<path d="M1716.34 103.59C1717.01 103.59 1717.56 103.042 1717.56 102.366C1717.56 101.69 1717.01 101.143 1716.34 101.143C1715.66 101.143 1715.11 101.69 1715.11 102.366C1715.11 103.042 1715.66 103.59 1716.34 103.59Z" fill="#FFCF2D"/>
<path d="M1713.64 128.581C1714.24 128.581 1714.72 128.098 1714.72 127.502C1714.72 126.907 1714.24 126.424 1713.64 126.424C1713.04 126.424 1712.56 126.907 1712.56 127.502C1712.56 128.098 1713.04 128.581 1713.64 128.581Z" fill="white"/>
<path fill-rule="evenodd" clip-rule="evenodd" d="M1713.64 126.684C1713.19 126.684 1712.82 127.051 1712.82 127.504C1712.82 127.956 1713.19 128.323 1713.64 128.323C1714.09 128.323 1714.46 127.956 1714.46 127.504C1714.46 127.051 1714.09 126.684 1713.64 126.684ZM1712.3 127.504C1712.3 126.765 1712.9 126.166 1713.64 126.166C1714.38 126.166 1714.98 126.765 1714.98 127.504C1714.98 128.242 1714.38 128.841 1713.64 128.841C1712.9 128.841 1712.3 128.242 1712.3 127.504Z" fill="#FFCF2D"/>
<path d="M1720.11 118.295C1720.6 118.295 1721 117.896 1721 117.404C1721 116.911 1720.6 116.512 1720.11 116.512C1719.62 116.512 1719.22 116.911 1719.22 117.404C1719.22 117.896 1719.62 118.295 1720.11 118.295Z" fill="white"/>
<path d="M1711.48 124.985C1711.98 124.985 1712.38 124.586 1712.38 124.093C1712.38 123.6 1711.98 123.201 1711.48 123.201C1710.99 123.201 1710.59 123.6 1710.59 124.093C1710.59 124.586 1710.99 124.985 1711.48 124.985Z" fill="#FFCF2D"/>
<path d="M1724.29 176.229H1708.38C1708.09 176.229 1708.01 175.846 1708.26 175.711L1713.82 173.606C1714.69 173.274 1715.27 172.434 1715.27 171.501V138.359C1715.27 136.16 1714.13 134.097 1712.23 132.987C1713.44 133.682 1714.84 134.076 1716.34 134.076C1717.84 134.076 1719.24 133.671 1720.45 132.977C1718.55 134.076 1717.4 136.15 1717.4 138.348V171.49C1717.4 172.424 1717.99 173.264 1718.86 173.595L1724.42 175.7C1724.66 175.846 1724.58 176.229 1724.29 176.229Z" fill="white"/>
<path fill-rule="evenodd" clip-rule="evenodd" d="M1718.82 133.967C1718.04 134.207 1717.2 134.337 1716.34 134.337C1715.47 134.337 1714.63 134.208 1713.84 133.967C1714.92 135.151 1715.53 136.721 1715.53 138.361V171.503C1715.53 172.544 1714.88 173.48 1713.91 173.85L1713.91 173.851L1708.37 175.947C1708.37 175.947 1708.37 175.947 1708.37 175.947C1708.37 175.948 1708.37 175.949 1708.37 175.95C1708.37 175.953 1708.37 175.958 1708.37 175.965C1708.37 175.968 1708.37 175.97 1708.37 175.972C1708.37 175.972 1708.37 175.972 1708.37 175.972C1708.38 175.972 1708.38 175.972 1708.38 175.972H1724.29C1724.29 175.972 1724.3 175.972 1724.3 175.972C1724.3 175.972 1724.3 175.972 1724.3 175.972C1724.3 175.97 1724.3 175.968 1724.3 175.964C1724.3 175.957 1724.3 175.949 1724.3 175.943C1724.3 175.941 1724.3 175.939 1724.3 175.936C1724.3 175.936 1724.3 175.935 1724.3 175.934L1718.77 173.84L1718.76 173.84C1717.79 173.47 1717.15 172.534 1717.15 171.493V138.35C1717.15 136.718 1717.75 135.149 1718.82 133.967ZM1716.34 133.819C1717.79 133.819 1719.15 133.427 1720.33 132.754L1720.58 133.204C1718.76 134.254 1717.66 136.24 1717.66 138.35V171.493C1717.66 172.318 1718.18 173.061 1718.95 173.355L1718.95 173.355M1713.73 173.366C1713.73 173.366 1713.72 173.366 1713.72 173.366L1708.15 175.477L1708.14 175.485C1707.9 175.615 1707.82 175.869 1707.87 176.081C1707.92 176.297 1708.1 176.491 1708.38 176.491H1724.29C1724.57 176.491 1724.76 176.296 1724.81 176.079C1724.86 175.866 1724.78 175.614 1724.55 175.479L1724.53 175.468L1718.95 173.355M1713.73 173.366C1714.5 173.072 1715.01 172.328 1715.01 171.503V138.361C1715.01 136.251 1713.91 134.274 1712.1 133.213L1712.36 132.764C1713.53 133.437 1714.89 133.819 1716.34 133.819" fill="#FFCF2D"/>
<path d="M1710.45 90.5745C1711.23 90.5745 1711.86 89.9431 1711.86 89.1642C1711.86 88.3853 1711.23 87.7539 1710.45 87.7539C1709.67 87.7539 1709.04 88.3853 1709.04 89.1642C1709.04 89.9431 1709.67 90.5745 1710.45 90.5745Z" fill="#FFCF2D"/>
<path d="M1720.11 92.8477C1720.79 92.8477 1721.34 92.2998 1721.34 91.624C1721.34 90.9482 1720.79 90.4004 1720.11 90.4004C1719.44 90.4004 1718.89 90.9482 1718.89 91.624C1718.89 92.2998 1719.44 92.8477 1720.11 92.8477Z" fill="white"/>
<path fill-rule="evenodd" clip-rule="evenodd" d="M1720.11 90.6591C1719.58 90.6591 1719.15 91.0909 1719.15 91.6235C1719.15 92.1561 1719.58 92.5879 1720.11 92.5879C1720.64 92.5879 1721.08 92.1561 1721.08 91.6235C1721.08 91.0909 1720.64 90.6591 1720.11 90.6591ZM1718.63 91.6235C1718.63 90.8045 1719.29 90.1406 1720.11 90.1406C1720.93 90.1406 1721.59 90.8045 1721.59 91.6235C1721.59 92.4425 1720.93 93.1064 1720.11 93.1064C1719.29 93.1064 1718.63 92.4425 1718.63 91.6235Z" fill="#FFCF2D"/>
<path d="M1714.12 97.6176C1714.61 97.6176 1715.01 97.2183 1715.01 96.7258C1715.01 96.2333 1714.61 95.834 1714.12 95.834C1713.63 95.834 1713.23 96.2333 1713.23 96.7258C1713.23 97.2183 1713.63 97.6176 1714.12 97.6176Z" fill="white"/>
<path fill-rule="evenodd" clip-rule="evenodd" d="M1714.12 96.0927C1713.77 96.0927 1713.48 96.3759 1713.48 96.7253C1713.48 97.0746 1713.77 97.3578 1714.12 97.3578C1714.47 97.3578 1714.75 97.0746 1714.75 96.7253C1714.75 96.3759 1714.47 96.0927 1714.12 96.0927ZM1712.97 96.7253C1712.97 96.0896 1713.48 95.5742 1714.12 95.5742C1714.75 95.5742 1715.27 96.0896 1715.27 96.7253C1715.27 97.361 1714.75 97.8763 1714.12 97.8763C1713.48 97.8763 1712.97 97.361 1712.97 96.7253Z" fill="#FFCF2D"/>
<path d="M1713.65 86.7596C1714.06 86.7596 1714.39 86.43 1714.39 86.0234C1714.39 85.6167 1714.06 85.2871 1713.65 85.2871C1713.25 85.2871 1712.92 85.6167 1712.92 86.0234C1712.92 86.43 1713.25 86.7596 1713.65 86.7596Z" fill="#FFCF2D"/>
<path d="M1727 149.561V170.435H1710.36C1708.96 170.435 1707.83 169.305 1707.83 167.905V166.194C1707.83 165.426 1708.17 164.742 1708.71 164.275C1708.17 163.809 1707.83 163.124 1707.83 162.357V160.646C1707.83 159.972 1708.1 159.35 1708.54 158.904C1708.1 158.448 1707.83 157.836 1707.83 157.162V155.451C1707.83 154.756 1708.11 154.123 1708.57 153.657C1708.11 153.2 1707.83 152.568 1707.83 151.873V149.571H1727V149.561Z" fill="#E57281"/>
<path fill-rule="evenodd" clip-rule="evenodd" d="M1708.12 161.951C1708.27 161.951 1708.38 162.067 1708.38 162.21C1708.38 163.654 1709.55 164.824 1711 164.824H1724.46C1725.9 164.824 1727.07 163.654 1727.07 162.21C1727.07 162.067 1727.19 161.951 1727.33 161.951C1727.47 161.951 1727.59 162.067 1727.59 162.21C1727.59 163.94 1726.19 165.342 1724.46 165.342H1711C1709.27 165.342 1707.86 163.94 1707.86 162.21C1707.86 162.067 1707.98 161.951 1708.12 161.951Z" fill="#9A3B82"/>
<path fill-rule="evenodd" clip-rule="evenodd" d="M1708.12 156.777C1708.27 156.777 1708.38 156.893 1708.38 157.037C1708.38 158.48 1709.55 159.65 1711 159.65H1724.46C1725.9 159.65 1727.07 158.48 1727.07 157.037C1727.07 156.893 1727.19 156.777 1727.33 156.777C1727.47 156.777 1727.59 156.893 1727.59 157.037C1727.59 158.766 1726.19 160.168 1724.46 160.168H1711C1709.27 160.168 1707.86 158.766 1707.86 157.037C1707.86 156.893 1707.98 156.777 1708.12 156.777Z" fill="#9A3B82"/>
<path fill-rule="evenodd" clip-rule="evenodd" d="M1708.12 151.604C1708.27 151.604 1708.38 151.72 1708.38 151.863C1708.38 153.306 1709.55 154.476 1711 154.476H1724.46C1725.9 154.476 1727.07 153.306 1727.07 151.863C1727.07 151.72 1727.19 151.604 1727.33 151.604C1727.47 151.604 1727.59 151.72 1727.59 151.863C1727.59 153.593 1726.19 154.994 1724.46 154.994H1711C1709.27 154.994 1707.86 153.593 1707.86 151.863C1707.86 151.72 1707.98 151.604 1708.12 151.604Z" fill="#9A3B82"/>
<path fill-rule="evenodd" clip-rule="evenodd" d="M1727.33 147.725C1727.47 147.725 1727.59 147.841 1727.59 147.984V167.386C1727.59 169.116 1726.19 170.518 1724.46 170.518H1710.86C1710.72 170.518 1710.6 170.402 1710.6 170.258C1710.6 170.115 1710.72 169.999 1710.86 169.999H1724.46C1725.9 169.999 1727.07 168.829 1727.07 167.386V147.984C1727.07 147.841 1727.19 147.725 1727.33 147.725Z" fill="#9A3B82"/>
<path fill-rule="evenodd" clip-rule="evenodd" d="M1724.27 146.501C1723.42 146.501 1722.72 147.194 1722.72 148.046C1722.72 149.03 1721.92 149.819 1720.95 149.819H1713.23C1712.63 149.819 1712.15 149.33 1712.15 148.73C1712.15 148.131 1712.63 147.642 1713.23 147.642H1714.61C1714.76 147.642 1714.87 147.758 1714.87 147.901C1714.87 148.044 1714.76 148.16 1714.61 148.16H1713.23C1712.92 148.16 1712.66 148.417 1712.66 148.73C1712.66 149.044 1712.92 149.301 1713.23 149.301H1720.95C1721.64 149.301 1722.2 148.742 1722.2 148.046C1722.2 146.907 1723.13 145.982 1724.27 145.982H1725.52C1726.66 145.982 1727.59 146.907 1727.59 148.046V151.406C1727.59 151.549 1727.47 151.665 1727.33 151.665C1727.18 151.665 1727.07 151.549 1727.07 151.406V148.046C1727.07 147.194 1726.38 146.501 1725.52 146.501H1724.27Z" fill="#9A3B82"/>
<path d="M1808.78 41.0289L1774.26 76.4316L1734.45 32.5567L1777.9 1.98633L1808.78 41.0289Z" fill="#3FB1B5"/>
<path fill-rule="evenodd" clip-rule="evenodd" d="M1731.61 32.4115L1777.12 0.50946L1776.76 0L1730.68 32.3082L1772.68 78.3421L1773.14 77.9228L1731.61 32.4115Z" fill="#FFCF2D"/>
<path fill-rule="evenodd" clip-rule="evenodd" d="M1784.76 45.4712C1784.16 41.3679 1780.34 38.5204 1776.23 39.1277L1773.63 39.5114L1773.54 38.8959L1776.14 38.5122C1776.14 38.5122 1776.14 38.5122 1776.14 38.5122C1780.59 37.8545 1784.72 40.9385 1785.38 45.38L1785.38 45.3804L1787.65 60.8521C1787.65 60.8521 1787.65 60.8522 1787.65 60.8521C1788.39 65.8611 1793.77 68.7287 1798.34 66.5381L1798.34 66.538L1809.19 61.3427L1809.46 61.9039L1798.6 67.0992" fill="#FFCF2D"/>
<path d="M1823.17 64.59C1824.28 65.1914 1825.33 65.8136 1826.28 66.4358C1826.12 67.338 1825.81 68.2298 1825.35 69.0905C1824.89 69.9408 1824.31 70.6978 1823.65 71.3304C1822.6 70.8741 1821.5 70.3453 1820.39 69.7438C1814.84 66.7469 1810.98 63.1693 1811.74 61.7486C1812.51 60.328 1817.62 61.5931 1823.17 64.59Z" fill="#FFCF2D"/>
<path fill-rule="evenodd" clip-rule="evenodd" d="M1810.56 60.3898C1810.04 60.3898 1809.62 60.8123 1809.62 61.3334C1809.62 61.8546 1810.04 62.2771 1810.56 62.2771C1811.08 62.2771 1811.51 61.8546 1811.51 61.3334C1811.51 60.8123 1811.08 60.3898 1810.56 60.3898ZM1809 61.3334C1809 60.4686 1809.7 59.7676 1810.56 59.7676C1811.43 59.7676 1812.13 60.4686 1812.13 61.3334C1812.13 62.1982 1811.43 62.8993 1810.56 62.8993C1809.7 62.8993 1809 62.1982 1809 61.3334Z" fill="#66B0F0"/>
<path d="M1687.17 207.156V246.002H1642.28V223.115C1643.26 225.666 1654.68 224.038 1666.88 219.372C1677.85 215.172 1686.32 210.008 1687.17 207.156Z" fill="#FE5244"/>
<path d="M1687.17 206.026C1686.31 208.878 1677.85 214.042 1666.87 218.242C1654.68 222.908 1643.26 224.536 1642.27 221.985C1641.29 219.434 1651.14 213.658 1663.33 208.992C1675.52 204.325 1686.2 202.614 1687.17 205.165C1687.28 205.425 1687.28 205.715 1687.17 206.026Z" fill="#66B0F0"/>
<path d="M1677.67 180.267V213.181L1675.19 214.435C1672.68 215.659 1669.87 216.872 1666.88 218.013C1661.39 220.118 1656.05 221.601 1651.76 222.368L1654.23 212.673L1658.25 196.848C1656.34 196.848 1654.54 195.998 1653.33 194.525L1636.81 175.735C1639.64 173.153 1643.87 176.668 1643.87 176.668L1642.28 168.569C1641.91 166.651 1642.47 164.66 1643.79 163.219L1648.8 157.712C1649.8 156.623 1651.59 157.049 1652.01 158.459L1655.58 170.768C1655.58 170.768 1664.43 177.529 1666.09 177.529C1667.97 177.529 1668.62 176.005 1665.12 170.996C1662.48 167.232 1665.12 164.484 1665.12 164.484L1673.69 171.701C1676.21 173.837 1677.67 176.969 1677.67 180.267Z" fill="white"/>
<path fill-rule="evenodd" clip-rule="evenodd" d="M1649 157.887C1649 157.887 1649 157.887 1649 157.887L1643.98 163.393C1642.72 164.774 1642.18 166.682 1642.54 168.519C1642.54 168.52 1642.54 168.52 1642.54 168.52L1644.26 177.333L1643.7 176.868L1643.7 176.866C1643.7 176.864 1643.7 176.862 1643.69 176.859C1643.69 176.853 1643.67 176.844 1643.66 176.832C1643.63 176.809 1643.58 176.773 1643.53 176.729C1643.41 176.641 1643.24 176.517 1643.02 176.376C1642.59 176.093 1641.99 175.744 1641.3 175.474C1639.99 174.958 1638.45 174.756 1637.17 175.761L1653.52 194.357L1653.53 194.36C1654.69 195.773 1656.42 196.589 1658.25 196.589H1658.59L1654.48 212.736L1652.11 222.041C1656.32 221.257 1661.48 219.806 1666.79 217.771L1666.79 217.771C1669.77 216.633 1672.57 215.423 1675.07 214.203C1675.07 214.203 1675.07 214.202 1675.07 214.202L1677.41 213.021V180.266C1677.41 177.045 1675.99 173.986 1673.53 171.899C1673.53 171.899 1673.53 171.899 1673.53 171.899L1665.15 164.85C1665.1 164.919 1665.03 165.007 1664.96 165.113C1664.77 165.413 1664.53 165.851 1664.38 166.399C1664.07 167.486 1664.06 169.032 1665.33 170.847C1666.21 172.106 1666.84 173.154 1667.25 174.018C1667.66 174.88 1667.86 175.576 1667.88 176.13C1667.9 176.693 1667.74 177.128 1667.39 177.413C1667.05 177.688 1666.59 177.788 1666.09 177.788C1665.82 177.788 1665.45 177.658 1665.06 177.474C1664.64 177.283 1664.15 177.014 1663.62 176.695C1662.54 176.056 1661.28 175.207 1660.06 174.361C1658.85 173.514 1657.69 172.667 1656.83 172.032C1656.4 171.715 1656.05 171.45 1655.8 171.265C1655.68 171.173 1655.59 171.1 1655.52 171.05C1655.49 171.025 1655.46 171.006 1655.44 170.993L1655.42 170.974C1655.42 170.974 1655.42 170.974 1655.58 170.768L1655.42 170.974L1655.35 170.922L1651.76 158.532C1651.76 158.531 1651.76 158.531 1651.76 158.531C1651.4 157.313 1649.85 156.949 1649 157.887ZM1655.8 170.613L1652.26 158.386L1652.26 158.385C1651.79 156.783 1649.75 156.298 1648.61 157.537L1648.61 157.537L1643.59 163.043C1642.22 164.546 1641.64 166.62 1642.03 168.619L1643.49 176.063C1643.43 176.025 1643.37 175.984 1643.31 175.942C1642.85 175.647 1642.22 175.278 1641.49 174.992C1640.05 174.423 1638.16 174.152 1636.63 175.543L1636.44 175.715L1653.13 194.693C1654.32 196.138 1656.06 197.006 1657.92 197.099L1653.98 212.608L1651.41 222.694L1651.81 222.623C1656.12 221.853 1661.47 220.365 1666.97 218.255C1666.97 218.255 1666.97 218.255 1666.97 218.255L1666.88 218.013L1666.97 218.255C1666.97 218.255 1666.97 218.255 1666.97 218.255C1669.97 217.112 1672.78 215.895 1675.3 214.668L1675.3 214.667L1675.3 214.666L1677.92 213.34V180.266C1677.92 176.892 1676.44 173.689 1673.86 171.503L1665.1 164.129L1664.93 164.304L1665.12 164.483C1664.93 164.304 1664.93 164.304 1664.93 164.304L1664.93 164.305L1664.93 164.308C1664.92 164.31 1664.92 164.312 1664.92 164.316C1664.91 164.322 1664.9 164.331 1664.89 164.343C1664.87 164.367 1664.84 164.401 1664.81 164.446C1664.74 164.534 1664.64 164.664 1664.53 164.83C1664.31 165.163 1664.05 165.648 1663.88 166.257C1663.53 167.486 1663.54 169.195 1664.9 171.144C1665.78 172.389 1666.38 173.411 1666.78 174.241C1667.17 175.074 1667.35 175.697 1667.36 176.151C1667.38 176.595 1667.25 176.855 1667.06 177.012C1666.86 177.179 1666.53 177.27 1666.09 177.27C1665.95 177.27 1665.67 177.188 1665.27 177.003C1664.88 176.823 1664.41 176.564 1663.88 176.25C1662.83 175.621 1661.57 174.779 1660.36 173.936C1659.15 173.092 1658 172.249 1657.14 171.616C1656.71 171.299 1656.36 171.036 1656.12 170.851C1655.99 170.759 1655.9 170.686 1655.83 170.637C1655.82 170.628 1655.81 170.62 1655.8 170.613Z" fill="#FFCF2D"/>
<path fill-rule="evenodd" clip-rule="evenodd" d="M1645.84 160.598C1646.94 159.397 1648.85 159.867 1649.3 161.415L1652.71 173.179L1658.92 178.147L1658.6 178.551L1652.26 173.481L1648.8 161.56C1648.8 161.56 1648.8 161.56 1648.8 161.56C1648.46 160.392 1647.04 160.052 1646.23 160.947L1645.84 160.598Z" fill="#FFCF2D"/>
<path fill-rule="evenodd" clip-rule="evenodd" d="M1642.85 164.061C1643.89 162.915 1645.77 163.357 1646.2 164.837L1649.42 175.969L1654.82 180.356L1654.49 180.759L1648.97 176.269L1645.7 164.982C1645.39 163.89 1644 163.565 1643.23 164.409L1642.85 164.061Z" fill="#FFCF2D"/>
<path fill-rule="evenodd" clip-rule="evenodd" d="M1644.02 176.48L1650 181.489L1649.66 181.886L1643.69 176.878L1644.02 176.48Z" fill="#FFCF2D"/>
<path fill-rule="evenodd" clip-rule="evenodd" d="M1665.23 197.108H1658.25V196.59H1665.23V197.108Z" fill="#FFCF2D"/>
<path d="M1677.67 204.697V213.398C1674.57 215.036 1670.89 216.695 1666.88 218.24C1661.38 220.345 1656.04 221.828 1651.74 222.596L1654.23 212.889C1656.99 211.562 1660.08 210.235 1663.34 208.99C1668.62 206.979 1673.62 205.506 1677.67 204.697Z" fill="#FFCF2D"/>
<path fill-rule="evenodd" clip-rule="evenodd" d="M1673.48 102.13L1670.35 95.258L1670.92 95L1674.09 101.961L1674.1 102.009C1674.42 104.742 1672.47 107.208 1669.74 107.539L1669.74 107.54C1667.35 107.82 1665.64 109.988 1665.92 112.379C1665.92 112.379 1665.92 112.379 1665.92 112.379L1666.38 116.216L1665.76 116.289L1665.31 112.452C1664.98 109.721 1666.93 107.243 1669.66 106.922C1672.04 106.633 1673.74 104.501 1673.48 102.13Z" fill="#FFCF2D"/>
<path d="M1707.12 72.9063L1723.73 46.9817L1666.59 46.5254L1647.87 96.363L1678.78 94.9112L1707.12 72.9063Z" fill="#FE5244"/>
<path fill-rule="evenodd" clip-rule="evenodd" d="M1664.46 44.0449L1724.42 44.7214L1724.41 45.3436L1664.89 44.672L1645.12 96.7744L1644.54 96.5538L1664.46 44.0449Z" fill="#FFCF2D"/>
<path d="M1706.09 69.019C1709.41 74.712 1703.77 84.1901 1693.48 90.1839C1683.19 96.1777 1672.17 96.4162 1668.85 90.7231C1668.39 89.9454 1668.11 89.1054 1667.98 88.2032C1667.15 82.5102 1672.57 74.7328 1681.46 69.5582C1690.35 64.3836 1699.79 63.4918 1704.33 67.0176C1705.04 67.5775 1705.63 68.2412 1706.09 69.019Z" fill="#66B0F0"/>
<path fill-rule="evenodd" clip-rule="evenodd" d="M1694.56 65.3331C1690.57 65.757 1686.03 67.2573 1681.62 69.8256C1677.21 72.3937 1673.66 75.6033 1671.33 78.8658C1668.99 82.135 1667.89 85.4213 1668.29 88.1563C1668.42 89.023 1668.68 89.8243 1669.12 90.5642L1669.12 90.565C1670.7 93.2692 1674.14 94.6197 1678.55 94.5236C1682.94 94.4277 1688.22 92.8891 1693.32 89.9136C1698.43 86.9382 1702.37 83.105 1704.62 79.328C1706.88 75.5406 1707.4 71.8788 1705.82 69.1746C1705.39 68.4326 1704.82 67.7983 1704.14 67.2613C1701.95 65.568 1698.55 64.9085 1694.56 65.3331ZM1694.49 64.7144C1698.57 64.2811 1702.16 64.9384 1704.52 66.7704L1704.52 66.7711C1705.26 67.3539 1705.88 68.0468 1706.36 68.8601L1706.36 68.8608C1708.1 71.8497 1707.46 75.7732 1705.15 79.6464C1702.84 83.5301 1698.82 87.4329 1693.64 90.4512C1688.46 93.4695 1683.08 95.047 1678.56 95.1456C1674.05 95.2439 1670.32 93.8673 1668.58 90.8787C1668.1 90.0634 1667.81 89.1851 1667.67 88.2477L1667.67 88.2466C1667.24 85.2886 1668.44 81.84 1670.82 78.5038C1673.22 75.1607 1676.83 71.8943 1681.3 69.2879C1685.78 66.6816 1690.4 65.1487 1694.49 64.7144Z" fill="white"/>
<path fill-rule="evenodd" clip-rule="evenodd" d="M1693.76 60.6464C1689.35 60.7438 1684.07 62.2857 1678.96 65.2596C1673.84 68.2386 1669.9 72.0775 1667.64 75.8634C1665.38 79.6582 1664.85 83.342 1666.44 86.0699L1666.44 86.07L1667.73 88.2813C1667.73 88.2666 1667.72 88.2519 1667.72 88.2372L1667.98 88.2018L1667.72 88.2388C1667.3 85.2997 1668.49 81.8647 1670.87 78.5341C1673.26 75.1977 1676.86 71.936 1681.33 69.3328C1685.8 66.7296 1690.42 65.1995 1694.5 64.7661C1698.57 64.3334 1702.14 64.9909 1704.49 66.8114L1704.49 66.812C1704.5 66.8208 1704.51 66.8296 1704.52 66.8385L1703.23 64.6269C1701.64 61.8991 1698.17 60.5488 1693.76 60.6464ZM1706.31 68.8864L1703.68 64.3658L1703.68 64.3658C1701.95 61.4005 1698.24 60.0287 1693.75 60.1281C1689.24 60.2277 1683.87 61.802 1678.7 64.8115L1678.7 64.8116C1673.52 67.8263 1669.5 71.7233 1667.2 75.5981C1664.89 79.4641 1664.26 83.3658 1665.99 86.331C1665.99 86.331 1665.99 86.331 1665.99 86.331L1668.61 90.815C1668.61 90.8277 1668.62 90.8403 1668.63 90.8529L1669.07 90.5912L1669.07 90.5905C1669.07 90.5786 1669.06 90.5667 1669.05 90.5548C1668.63 89.8168 1668.35 89.0213 1668.24 88.1664L1668.24 88.1657L1668.24 88.1649C1667.84 85.4109 1668.95 82.1106 1671.29 78.8357C1673.63 75.5665 1677.18 72.3522 1681.59 69.7809C1686.01 67.2094 1690.55 65.7064 1694.55 65.2817C1698.56 64.8563 1701.97 65.5157 1704.17 67.2208C1704.86 67.7616 1705.43 68.4008 1705.87 69.1488L1706.31 68.8871L1706.31 68.8864Z" fill="white"/>
<path d="M1665.18 130.232C1664.77 131.425 1664.34 132.565 1663.88 133.613C1662.96 133.602 1662.03 133.447 1661.11 133.136C1660.19 132.825 1659.36 132.389 1658.61 131.84C1658.88 130.73 1659.22 129.558 1659.62 128.366C1661.63 122.393 1664.49 117.975 1666.03 118.483C1667.56 119.002 1667.18 124.259 1665.18 130.232Z" fill="#FFCF2D"/>
<path fill-rule="evenodd" clip-rule="evenodd" d="M1666.24 116.304C1665.72 116.304 1665.29 116.726 1665.29 117.248C1665.29 117.769 1665.72 118.191 1666.24 118.191C1666.76 118.191 1667.18 117.769 1667.18 117.248C1667.18 116.726 1666.76 116.304 1666.24 116.304ZM1664.67 117.248C1664.67 116.383 1665.37 115.682 1666.24 115.682C1667.1 115.682 1667.8 116.383 1667.8 117.248C1667.8 118.112 1667.1 118.813 1666.24 118.813C1665.37 118.813 1664.67 118.112 1664.67 117.248Z" fill="#66B0F0"/>
<path d="M1612.69 203.554V245.997H1566.07V183.529C1566.98 186.588 1576.74 192.966 1588.85 198.296C1601.74 203.989 1612.43 206.333 1612.69 203.554Z" fill="#66B0F0"/>
<path d="M1612.7 202.424C1612.42 205.204 1601.74 202.85 1588.85 197.167C1576.74 191.827 1566.98 185.449 1566.07 182.4C1566.01 182.203 1565.99 182.017 1566.01 181.851C1566.28 179.072 1576.96 181.426 1589.85 187.108C1602.74 192.791 1612.98 199.645 1612.7 202.424Z" fill="#9A3B82"/>
<path d="M1585.1 141.544C1586.21 139.262 1588.52 137.811 1591.06 137.811H1598.4L1598.78 167.282L1603.89 194.368L1605.52 202.975C1601.21 202.021 1595.32 200.019 1588.87 197.178C1585.22 195.571 1580.64 193.186 1577.59 191.506V155.647C1577.59 155.159 1577.69 154.672 1577.85 154.216L1585.1 141.544Z" fill="#A0505A"/>
<path d="M1605.51 202.975C1601.19 202.021 1595.3 200.019 1588.85 197.178C1585.2 195.571 1580.63 193.186 1577.58 191.506V182.494C1580.91 183.562 1585.84 185.346 1589.85 187.109C1595.26 189.494 1599.99 191.951 1603.89 194.368L1605.51 202.975Z" fill="#73325A"/>
<path d="M1632.81 104.68L1593.81 176.439C1592.37 179.094 1588.4 179.726 1584.94 177.849C1581.49 175.972 1579.86 172.302 1581.3 169.636L1620.31 97.877L1632.81 104.68Z" fill="white"/>
<path fill-rule="evenodd" clip-rule="evenodd" d="M1620.2 97.5234L1633.16 104.574L1594.04 176.561C1593.27 177.974 1591.84 178.833 1590.17 179.098C1588.51 179.363 1586.59 179.039 1584.82 178.075C1581.3 176.162 1579.54 172.354 1581.08 169.511L1581.08 169.511L1620.2 97.5234ZM1620.41 98.2267L1581.53 169.758C1580.19 172.246 1581.68 175.779 1585.07 177.62C1586.75 178.533 1588.55 178.831 1590.09 178.586C1591.63 178.34 1592.91 177.555 1593.58 176.314L1632.46 104.782L1620.41 98.2267Z" fill="#FFCF2D"/>
<path d="M1632.81 104.696C1634.25 102.039 1632.62 98.3645 1629.17 96.4885C1625.72 94.6125 1621.75 95.2455 1620.31 97.9023C1618.86 100.559 1620.49 104.234 1623.94 106.11C1627.39 107.986 1631.36 107.353 1632.81 104.696Z" fill="#66B0F0"/>
<path fill-rule="evenodd" clip-rule="evenodd" d="M1620.53 98.0256C1619.19 100.505 1620.68 104.042 1624.06 105.881C1627.45 107.721 1631.23 107.051 1632.58 104.572C1633.93 102.092 1632.43 98.5555 1629.05 96.7158C1625.66 94.8761 1621.88 95.5465 1620.53 98.0256ZM1623.82 106.337C1620.3 104.425 1618.54 100.613 1620.08 97.7781C1621.62 94.9436 1625.78 94.348 1629.29 96.2603C1632.81 98.1726 1634.57 101.985 1633.03 104.819C1631.49 107.654 1627.34 108.249 1623.82 106.337Z" fill="#FFCF2D"/>
<path d="M1607.33 132.148L1625.76 117.102L1625.47 122.452L1631.37 123.925L1617.93 132.221C1621.54 131.599 1625.89 131.091 1629.46 131.371C1633.73 131.702 1632.29 136.69 1630.7 140.952C1634.43 140.589 1646.95 133.009 1651.67 134.44C1654.55 135.311 1653.51 141.191 1652.68 144.437C1653.89 144.499 1659.97 144.426 1659.97 144.426L1656.76 147.361L1658.52 150.296C1651.68 150.596 1651.59 149.518 1652.45 144.665C1652.6 139.386 1646.75 144.457 1634.3 147.433C1628.13 148.906 1628.92 144.893 1630.45 140.714C1629.84 138.795 1625.26 136.711 1610.57 140.548L1607.33 132.148Z" fill="#FE5244"/>
<path d="M1607.6 141.314C1610.61 141.314 1613.05 138.877 1613.05 135.87C1613.05 132.863 1610.61 130.426 1607.6 130.426C1604.6 130.426 1602.16 132.863 1602.16 135.87C1602.16 138.877 1604.6 141.314 1607.6 141.314Z" fill="white"/>
<path fill-rule="evenodd" clip-rule="evenodd" d="M1607.6 130.685C1604.74 130.685 1602.42 133.006 1602.42 135.869C1602.42 138.733 1604.74 141.054 1607.6 141.054C1610.47 141.054 1612.79 138.733 1612.79 135.869C1612.79 133.006 1610.47 130.685 1607.6 130.685ZM1601.9 135.869C1601.9 132.72 1604.45 130.166 1607.6 130.166C1610.75 130.166 1613.31 132.72 1613.31 135.869C1613.31 139.019 1610.75 141.573 1607.6 141.573C1604.45 141.573 1601.9 139.019 1601.9 135.869Z" fill="#FE5244"/>
<path d="M1605.73 137.811V138.153C1605.73 141.637 1602.91 144.468 1599.41 144.468H1592.78V137.811H1605.73Z" fill="#A0505A"/>
<path d="M1613.79 150.596L1612.04 154.702L1610 159.504L1608.89 162.107L1607.2 166.078C1607.16 166.182 1607.1 166.296 1607.04 166.389C1607.04 166.4 1607.03 166.4 1607.03 166.41C1606.49 167.343 1605.45 167.924 1604.3 167.924H1590.87C1589.24 167.924 1588.13 166.379 1588.73 164.958L1589.7 162.667L1591.85 157.627L1593.7 153.282L1595.32 149.466C1595.8 148.346 1596.95 147.609 1598.24 147.609H1611.67C1613.29 147.63 1614.4 149.175 1613.79 150.596Z" fill="#A0505A"/>
<path fill-rule="evenodd" clip-rule="evenodd" d="M1596.5 152.565C1595.7 152.565 1594.96 152.907 1594.45 153.475C1594.35 153.581 1594.19 153.59 1594.08 153.494C1593.98 153.399 1593.97 153.235 1594.06 153.128C1594.67 152.452 1595.55 152.047 1596.5 152.047H1609.33C1610.83 152.047 1611.92 153.344 1611.77 154.73C1611.76 154.872 1611.63 154.975 1611.49 154.959C1611.34 154.944 1611.24 154.816 1611.26 154.673C1611.37 153.591 1610.52 152.565 1609.33 152.565H1596.5Z" fill="#73325A"/>
<path fill-rule="evenodd" clip-rule="evenodd" d="M1594.64 157.034C1593.89 157.034 1593.2 157.328 1592.7 157.829C1592.6 157.931 1592.43 157.931 1592.33 157.829C1592.23 157.728 1592.23 157.564 1592.33 157.463C1592.93 156.864 1593.75 156.516 1594.64 156.516H1607.47C1609.11 156.516 1610.25 158.046 1609.83 159.561C1609.8 159.699 1609.65 159.78 1609.52 159.742C1609.38 159.703 1609.3 159.561 1609.33 159.423C1609.66 158.242 1608.77 157.034 1607.47 157.034H1594.64Z" fill="#73325A"/>
<path fill-rule="evenodd" clip-rule="evenodd" d="M1592.58 162.116C1591.86 162.116 1591.18 162.391 1590.68 162.865C1590.58 162.963 1590.41 162.958 1590.31 162.854C1590.22 162.75 1590.22 162.586 1590.33 162.488C1590.92 161.924 1591.72 161.598 1592.58 161.598H1605.41C1607.09 161.598 1608.27 163.243 1607.72 164.805C1607.68 164.94 1607.53 165.011 1607.39 164.964C1607.26 164.916 1607.19 164.768 1607.23 164.633C1607.66 163.416 1606.74 162.116 1605.41 162.116H1592.58Z" fill="#73325A"/>
<path d="M1636.89 29.9846C1637.75 29.0617 1638.61 28.201 1639.46 27.4336C1640.29 27.8173 1641.08 28.3461 1641.79 29.0098C1642.5 29.6735 1643.09 30.4201 1643.54 31.2186C1642.83 32.1208 1642.04 33.0437 1641.18 33.9666C1636.89 38.5812 1632.46 41.4329 1631.27 40.3337C1630.09 39.2345 1632.6 34.5992 1636.89 29.9846Z" fill="#FFCF2D"/>
<path d="M1606.75 66.527L1605.38 67.3774C1600.42 70.4572 1590.74 63.8309 1583.78 52.5796C1576.81 41.3282 1575.2 29.7244 1580.15 26.6445L1581.56 25.7734L1589.95 50.4537L1606.75 66.527Z" fill="#66B0F0"/>
<path d="M1620.65 79.8317L1606.75 66.5271L1589.94 50.4434L1581.55 25.7735L1574.05 3.7168L1608.97 31.8503L1620.65 79.8317Z" fill="#66B0F0"/>
<path fill-rule="evenodd" clip-rule="evenodd" d="M1573.42 2.80273L1609.25 31.675L1621.2 80.7936L1606.54 66.7527L1589.67 50.6164L1581.26 25.8745L1573.42 2.80273ZM1574.69 4.63242L1581.85 25.6741L1590.21 50.272L1606.97 66.3031L1620.09 78.8712L1608.69 32.0271L1574.69 4.63242Z" fill="white"/>
<path fill-rule="evenodd" clip-rule="evenodd" d="M1574.98 2.5293L1610.42 30.439L1622.04 78.442L1621.44 78.5884L1609.87 30.7946L1574.6 3.01808L1574.98 2.5293Z" fill="#9A3B82"/>
<path fill-rule="evenodd" clip-rule="evenodd" d="M1615.14 42.2727C1614.09 39.0066 1610.69 37.0966 1607.35 37.9083L1607.34 37.9084C1603.82 38.7598 1601.65 42.3143 1602.5 45.8392L1601.9 45.9853C1600.97 42.1269 1603.34 38.2359 1607.2 37.3036C1610.86 36.4149 1614.58 38.5069 1615.73 42.0839L1615.73 42.0855L1618.64 51.4925L1618.64 51.4928C1620.16 56.388 1627.21 56.0102 1628.19 50.9752L1629.87 42.3375L1630.49 42.4562L1628.81 51.0943L1628.81 51.0947C1627.7 56.7613 1619.75 57.1925 1618.05 51.6766M1618.05 51.6763L1615.14 42.2742C1615.14 42.2737 1615.14 42.2732 1615.14 42.2727" fill="#FFCF2D"/>
<path fill-rule="evenodd" clip-rule="evenodd" d="M1630.57 40.4386C1630.05 40.4386 1629.63 40.8611 1629.63 41.3823C1629.63 41.9034 1630.05 42.3259 1630.57 42.3259C1631.09 42.3259 1631.52 41.9034 1631.52 41.3823C1631.52 40.8611 1631.09 40.4386 1630.57 40.4386ZM1629.01 41.3823C1629.01 40.5175 1629.71 39.8164 1630.57 39.8164C1631.44 39.8164 1632.14 40.5175 1632.14 41.3823C1632.14 42.247 1631.44 42.9481 1630.57 42.9481C1629.71 42.9481 1629.01 42.247 1629.01 41.3823Z" fill="#66B0F0"/>
</g>
<g clip-path="url(#clip1_4752_2358)">
<path d="M337.003 211.79V246.001H285.535L295.563 193.467C295.242 195.541 301.661 199.429 310.445 203.329C313.597 204.728 317.113 206.118 320.867 207.435C326.923 209.571 332.502 211.023 337.003 211.79C337.003 211.79 336.993 211.79 337.003 211.79Z" fill="#9A3B82"/>
<path d="M337.003 201.503V210.659C332.502 209.892 326.933 208.451 320.856 206.314C306.535 201.285 295.511 195.073 296.133 192.284C296.144 192.242 296.154 192.201 296.165 192.17C297.129 189.443 309.812 191.33 324.33 196.422C328.997 198.06 333.208 199.75 336.744 201.378C336.827 201.42 336.91 201.461 337.003 201.503Z" fill="#FFCF2D"/>
<path d="M329.94 122.236C324.921 122.236 320.856 126.301 320.856 131.31V156.177C320.856 161.186 316.79 165.251 311.782 165.251H275.402C280.422 165.251 284.476 161.186 284.476 156.177V131.31C284.476 126.291 288.542 122.236 293.55 122.236H329.94Z" fill="white"/>
<path fill-rule="evenodd" clip-rule="evenodd" d="M293.55 122.495C288.685 122.495 284.736 126.434 284.736 131.309V156.176C284.736 160.251 282.126 163.719 278.48 164.991H311.782C316.647 164.991 320.596 161.042 320.596 156.176V131.309C320.596 127.234 323.213 123.766 326.861 122.495H293.55ZM329.94 121.977H293.55C288.399 121.977 284.217 126.147 284.217 131.309V156.176C284.217 161.042 280.278 164.991 275.402 164.991V165.509H311.782C316.934 165.509 321.115 161.328 321.115 156.176V131.309C321.115 126.444 325.064 122.495 329.94 122.495V121.977Z" fill="#FFCF2D"/>
<path d="M314.032 135.105H290.865V156.602H314.032V135.105Z" fill="white"/>
<path fill-rule="evenodd" clip-rule="evenodd" d="M290.605 134.846H314.291V156.861H290.605V134.846ZM291.124 135.364V156.342H313.773V135.364H291.124Z" fill="#FFCF2D"/>
<path fill-rule="evenodd" clip-rule="evenodd" d="M290.865 137.916H314.022V138.435H290.865V137.916Z" fill="#FFCF2D"/>
<path fill-rule="evenodd" clip-rule="evenodd" d="M290.865 140.984H314.022V141.503H290.865V140.984Z" fill="#FFCF2D"/>
<path fill-rule="evenodd" clip-rule="evenodd" d="M290.865 144.064H314.022V144.583H290.865V144.064Z" fill="#FFCF2D"/>
<path fill-rule="evenodd" clip-rule="evenodd" d="M290.865 147.135H314.022V147.653H290.865V147.135Z" fill="#FFCF2D"/>
<path fill-rule="evenodd" clip-rule="evenodd" d="M290.865 150.215H314.022V150.733H290.865V150.215Z" fill="#FFCF2D"/>
<path fill-rule="evenodd" clip-rule="evenodd" d="M290.865 153.283H314.022V153.802H290.865V153.283Z" fill="#FFCF2D"/>
<path d="M320.856 131.31C320.856 126.322 324.88 122.278 329.848 122.236C334.825 122.278 338.839 126.322 338.839 131.31H320.856Z" fill="#66B0F0"/>
<path fill-rule="evenodd" clip-rule="evenodd" d="M329.848 121.977L329.85 121.977C334.97 122.019 339.098 126.179 339.098 131.309V131.569H320.597V131.309C320.597 126.179 324.736 122.019 329.845 121.977L329.848 121.977ZM329.848 122.495C325.11 122.536 321.256 126.325 321.119 131.05H338.576C338.44 126.325 334.595 122.536 329.848 122.495Z" fill="#FFCF2D"/>
<path d="M311.824 165.479C311.813 165.479 311.793 165.479 311.782 165.479H275.538C275.517 165.479 275.496 165.479 275.476 165.479C271.753 165.427 268.569 163.125 267.221 159.869H303.538C304.896 163.125 308.08 165.427 311.824 165.479Z" fill="#FFCF2D"/>
<path d="M292.38 132.635H288.19V129.275H290.16V131.142C290.16 131.183 290.181 131.215 290.202 131.225L290.212 131.235L292.38 132.635Z" fill="#FE5244"/>
<path d="M294.007 130.438V130.884C294.007 130.967 293.997 131.05 293.997 131.133C293.997 131.154 293.987 131.185 293.987 131.205C293.976 131.247 293.976 131.288 293.966 131.33C293.852 131.9 293.51 132.367 293.084 132.543C293.053 132.554 293.022 132.564 292.991 132.574C292.939 132.595 292.877 132.605 292.825 132.616C292.804 132.616 292.784 132.626 292.763 132.626L290.388 131.081C290.409 130.718 290.637 130.428 290.907 130.428H294.007V130.438Z" fill="#FE5244"/>
<path d="M317.144 129.275V132.635H312.955L315.112 131.235L315.122 131.225C315.132 131.215 315.132 131.215 315.143 131.215C315.143 131.204 315.153 131.204 315.153 131.194C315.153 131.194 315.153 131.183 315.163 131.183C315.163 131.173 315.163 131.173 315.174 131.173C315.174 131.173 315.174 131.173 315.174 131.163C315.174 131.152 315.174 131.152 315.174 131.142V129.275H317.144Z" fill="#FE5244"/>
<path d="M314.965 131.092L312.591 132.638C312.528 132.627 312.466 132.617 312.404 132.606C312.383 132.596 312.363 132.596 312.342 132.586C312.311 132.575 312.29 132.565 312.259 132.555C312.238 132.544 312.207 132.534 312.186 132.523C311.865 132.347 311.595 132.005 311.46 131.58C311.44 131.518 311.419 131.455 311.408 131.393C311.398 131.372 311.398 131.341 311.388 131.31C311.367 131.175 311.346 131.041 311.346 130.895V130.449H314.457C314.717 130.439 314.945 130.729 314.965 131.092Z" fill="#FE5244"/>
<path d="M314.966 127.576V130.501C314.946 130.48 314.925 130.449 314.904 130.428C314.863 130.387 314.821 130.355 314.78 130.324C314.676 130.262 314.562 130.221 314.448 130.221H290.897C290.772 130.221 290.658 130.262 290.565 130.324C290.524 130.355 290.482 130.387 290.441 130.428C290.42 130.449 290.399 130.469 290.378 130.501V127.576C290.378 127.182 290.607 126.871 290.897 126.871H314.448C314.728 126.871 314.966 127.193 314.966 127.576Z" fill="#FE5244"/>
<path d="M337.003 170.011V210.66H336.993C332.492 209.893 326.923 208.452 320.846 206.315C317.092 204.998 313.576 203.599 310.424 202.209L312.114 192.772L314.987 176.751C305.975 173.93 304.513 165.261 304.513 165.261H311.762C316.781 165.261 320.836 161.196 320.836 156.188V153.201H316.179C312.913 153.201 310.258 149.986 310.258 146.72V145.662H320.608C322.526 145.662 324.33 146.564 325.482 148.099L333.052 158.21C335.624 161.611 337.003 165.749 337.003 170.011Z" fill="#A0505A"/>
<path d="M337.003 201.503V210.66H336.993C332.492 209.892 326.923 208.451 320.846 206.315C317.092 204.998 313.576 203.598 310.424 202.208L312.114 192.771C315.848 193.684 319.996 194.918 324.31 196.432C328.976 198.07 333.187 199.761 336.713 201.389C336.827 201.42 336.91 201.461 337.003 201.503Z" fill="#73325A"/>
<path d="M321.313 153.201H316.314C313.047 153.201 310.393 149.986 310.393 146.72V145.662H321.313V153.201Z" fill="#A0505A"/>
<path fill-rule="evenodd" clip-rule="evenodd" d="M318.08 163.544C318.08 163.544 318.08 163.544 318.171 163.301C318.262 163.058 318.262 163.059 318.262 163.059L318.263 163.059L318.264 163.059L318.269 163.061C318.274 163.063 318.279 163.065 318.287 163.068C318.302 163.074 318.324 163.083 318.352 163.095C318.408 163.118 318.489 163.153 318.591 163.201C318.796 163.296 319.087 163.441 319.438 163.645C320.138 164.053 321.078 164.694 322.037 165.632C323.96 167.509 325.959 170.569 326.29 175.291L325.773 175.328C325.451 170.748 323.519 167.804 321.675 166.003C320.751 165.101 319.848 164.484 319.177 164.093C318.841 163.898 318.565 163.76 318.373 163.671C318.277 163.626 318.202 163.594 318.152 163.573C318.127 163.563 318.108 163.555 318.096 163.55C318.09 163.548 318.086 163.546 318.083 163.545L318.08 163.544L318.08 163.544ZM318.08 163.544C318.08 163.544 318.08 163.544 318.08 163.544L318.08 163.544Z" fill="#73325A"/>
<path fill-rule="evenodd" clip-rule="evenodd" d="M319.913 177.227H315.007V176.709H319.913V177.227Z" fill="#73325A"/>
<path fill-rule="evenodd" clip-rule="evenodd" d="M323.833 63.6303C323.448 58.7542 317.978 56.0837 313.893 58.7841L310.606 60.9616L310.262 60.4429L313.55 58.265C318.03 55.3034 324.031 58.2327 324.454 63.5813L325.169 72.6341C325.169 72.6341 325.169 72.6341 325.169 72.6341C325.545 77.3717 330.758 80.0718 334.843 77.6486L336.916 76.4148L337.235 76.9495L335.16 78.1836L335.16 78.1838C330.679 80.8419 324.961 77.88 324.549 72.6833L323.833 63.6303Z" fill="#FFCF2D"/>
<path d="M262.657 27.0723L304.896 51.5866L326.165 99.3399L301.764 82.9037L275.247 51.8355L262.657 27.0723Z" fill="#9A3B82"/>
<path fill-rule="evenodd" clip-rule="evenodd" d="M305.659 50.6851L262.616 25.6924L262.928 25.1543L306.145 50.2481L327.912 99.0991L327.344 99.3523L305.659 50.6851Z" fill="#FFCF2D"/>
<path d="M301.324 83.9581C303.297 82.2919 298.862 73.7929 291.417 64.975C283.972 56.1572 276.337 50.3597 274.363 52.026C272.39 53.6922 276.825 62.1912 284.27 71.0091C291.715 79.8269 299.35 85.6244 301.324 83.9581Z" fill="white"/>
<path d="M300.124 84.4667C302.058 82.8337 297.708 74.5 290.407 65.8528C283.106 57.2057 275.62 51.5196 273.686 53.1526C271.751 54.7856 276.102 63.1193 283.402 71.7664C290.703 80.4136 298.19 86.0997 300.124 84.4667Z" fill="white"/>
<path fill-rule="evenodd" clip-rule="evenodd" d="M275.31 59.7108C277.057 63.0579 279.958 67.2873 283.6 71.6008C287.242 75.9143 290.925 79.483 293.932 81.7667C295.437 82.9099 296.761 83.7222 297.818 84.1483C298.347 84.3615 298.796 84.4726 299.16 84.487C299.521 84.5014 299.779 84.4201 299.956 84.2702C300.134 84.1202 300.257 83.8798 300.304 83.521C300.351 83.1603 300.316 82.6992 300.195 82.1422C299.952 81.0286 299.373 79.5871 298.499 77.9116C296.751 74.5645 293.851 70.3351 290.209 66.0216C286.567 61.7081 282.884 58.1394 279.877 55.8556C278.372 54.7125 277.047 53.9002 275.99 53.4741C275.462 53.2609 275.013 53.1498 274.649 53.1354C274.288 53.121 274.03 53.2022 273.852 53.3522C273.675 53.5022 273.551 53.7426 273.505 54.1014C273.458 54.4621 273.493 54.9232 273.614 55.4802C273.857 56.5937 274.436 58.0353 275.31 59.7108ZM272.991 54.0348C273.048 53.5915 273.212 53.2143 273.518 52.956C273.824 52.6978 274.223 52.5995 274.67 52.6173C275.115 52.635 275.625 52.7678 276.184 52.9932C277.303 53.4442 278.669 54.2876 280.19 55.4428C283.236 57.7556 286.946 61.3535 290.605 65.6872C294.264 70.0208 297.189 74.2819 298.958 77.6717C299.842 79.3647 300.444 80.8531 300.701 82.0317C300.83 82.6207 300.875 83.1461 300.818 83.5875C300.761 84.0309 300.597 84.4081 300.291 84.6664C299.985 84.9246 299.586 85.0229 299.139 85.0051C298.694 84.9874 298.184 84.8546 297.625 84.6292C296.506 84.1782 295.139 83.3348 293.618 82.1796C290.573 79.8668 286.863 76.2689 283.204 71.9352C279.545 67.6016 276.62 63.3405 274.851 59.9507C273.967 58.2577 273.364 56.7692 273.107 55.5907C272.979 55.0017 272.934 54.4763 272.991 54.0348Z" fill="#FFCF2D"/>
<path d="M305.27 80.6023L301.246 83.9932C301.993 83.3606 301.827 81.7637 300.925 79.5342C299.442 75.8632 295.968 70.502 291.342 65.006C286.707 59.5203 281.999 55.1961 278.628 53.1221C276.585 51.857 275.03 51.4214 274.283 52.054L278.307 48.6631C280.277 46.9935 288.262 52.4481 295.708 61.2728C303.154 70.0976 307.251 78.9431 305.27 80.6023Z" fill="#FFCF2D"/>
<path d="M348.255 67.6289C349.395 67.0793 350.505 66.5919 351.573 66.1875C352.206 66.8512 352.755 67.6289 353.18 68.5C353.606 69.371 353.875 70.2836 354 71.1858C353.015 71.7665 351.946 72.3472 350.816 72.8968C345.143 75.6448 339.979 76.6922 339.274 75.2404C338.558 73.7782 342.582 70.3769 348.255 67.6289Z" fill="#FFCF2D"/>
<path fill-rule="evenodd" clip-rule="evenodd" d="M338.237 75.0109C337.716 75.0109 337.294 75.4333 337.294 75.9545C337.294 76.4757 337.716 76.8982 338.237 76.8982C338.758 76.8982 339.181 76.4757 339.181 75.9545C339.181 75.4333 338.758 75.0109 338.237 75.0109ZM336.671 75.9545C336.671 75.0897 337.372 74.3887 338.237 74.3887C339.102 74.3887 339.803 75.0897 339.803 75.9545C339.803 76.8193 339.102 77.5203 338.237 77.5203C337.372 77.5203 336.671 76.8193 336.671 75.9545Z" fill="#9A3B82"/>
<path d="M264.182 202.095V246.001H214.166L220.575 198.32C220.575 200.249 230.333 202.655 242.373 203.692C254.413 204.739 264.182 204.024 264.182 202.095Z" fill="#66B0F0"/>
<path d="M263.954 200.965C263.954 202.894 254.279 203.609 242.353 202.562C230.427 201.515 220.751 199.109 220.751 197.19C220.751 195.262 230.427 194.546 242.353 195.594C254.289 196.631 263.954 199.036 263.954 200.965Z" fill="#3FB1B5"/>
<path fill-rule="evenodd" clip-rule="evenodd" d="M273.739 105.846L270.722 103.893L271.06 103.371L274.1 105.338L274.11 105.346C274.992 106.029 275.295 107.259 275.198 108.768C275.1 110.291 274.591 112.184 273.739 114.315C272.033 118.579 268.92 123.862 264.811 129.156C260.702 134.456 256.36 138.785 252.655 141.499C250.804 142.854 249.097 143.818 247.646 144.292C246.208 144.762 244.941 144.775 244.059 144.093L244.047 144.083L242.543 142.662L242.97 142.21L244.452 143.609C245.085 144.091 246.087 144.147 247.453 143.7C248.815 143.255 250.462 142.333 252.287 140.997C255.934 138.326 260.236 134.042 264.32 128.775L264.32 128.775C268.403 123.513 271.482 118.281 273.161 114.084C274.002 111.983 274.485 110.159 274.577 108.729C274.669 107.293 274.365 106.338 273.739 105.846Z" fill="#66B0F0"/>
<path d="M228.84 152.827L263.218 121.365L275.237 84.7695L238.547 118.109L228.84 152.827Z" fill="#66B0F0"/>
<path fill-rule="evenodd" clip-rule="evenodd" d="M276.806 84.9316C276.969 84.9852 277.058 85.161 277.005 85.3242L264.773 122.578L227.297 156.874C227.17 156.99 226.973 156.981 226.857 156.855C226.741 156.728 226.75 156.531 226.877 156.415L264.233 122.229L276.414 85.1302C276.467 84.9669 276.643 84.878 276.806 84.9316Z" fill="#FE5244"/>
<path fill-rule="evenodd" clip-rule="evenodd" d="M214.013 152.261L246.659 121.037L247.089 121.487L214.443 152.71L214.443 152.711C212.636 154.435 209.682 152.805 210.19 150.349L211.102 145.921L211.102 145.921C211.459 144.198 209.504 142.939 208.085 143.974L208.085 143.975L197.3 151.825L196.934 151.322L207.719 143.472C207.719 143.472 207.719 143.472 207.719 143.472M211.712 146.047C212.184 143.767 209.598 142.101 207.719 143.472L211.712 146.047ZM211.712 146.047L210.799 150.474L210.799 150.475C210.415 152.332 212.646 153.564 214.013 152.261L214.013 152.261" fill="#FE5244"/>
<path d="M188.333 162.751C187.369 163.56 186.404 164.307 185.471 164.96C184.693 164.473 183.978 163.861 183.345 163.114C182.723 162.368 182.235 161.559 181.893 160.708C182.702 159.9 183.594 159.08 184.558 158.261C189.38 154.206 194.13 151.915 195.177 153.159C196.215 154.403 193.155 158.697 188.333 162.751Z" fill="#FFCF2D"/>
<path fill-rule="evenodd" clip-rule="evenodd" d="M196.111 151.386C195.59 151.386 195.168 151.808 195.168 152.33C195.168 152.851 195.59 153.273 196.111 153.273C196.633 153.273 197.055 152.851 197.055 152.33C197.055 151.808 196.633 151.386 196.111 151.386ZM194.545 152.33C194.545 151.465 195.247 150.764 196.111 150.764C196.976 150.764 197.677 151.465 197.677 152.33C197.677 153.194 196.976 153.895 196.111 153.895C195.247 153.895 194.545 153.194 194.545 152.33Z" fill="#FE5244"/>
<path d="M248.419 169.046V202.955C246.501 202.872 244.458 202.748 242.353 202.561C234.585 201.887 227.782 200.622 223.977 199.295L224.547 195.541L226.455 182.941H223.987C220.471 182.941 217.63 180.1 217.63 176.585V164.099C217.63 161.631 218.522 159.257 220.15 157.4L228.27 148.119C228.799 147.518 229.794 147.891 229.794 148.69V161.31C229.794 162.824 229.255 164.286 228.27 165.437L227.544 166.287H236.359C237.634 166.287 238.381 164.867 237.665 163.809C236.577 162.222 235.145 159.962 233.787 157.348C231.08 152.174 235.778 149.281 235.778 149.281L246.532 163.228C247.756 164.918 248.419 166.961 248.419 169.046Z" fill="#FFCF2D"/>
<path fill-rule="evenodd" clip-rule="evenodd" d="M229.795 147.756C229.938 147.756 230.054 147.872 230.054 148.015V161.309C230.054 162.885 229.493 164.407 228.468 165.605L228.467 165.605M228.467 165.605L227.742 166.455C227.649 166.564 227.485 166.577 227.376 166.484C227.267 166.391 227.254 166.227 227.347 166.119L228.073 165.268L228.073 165.268C229.018 164.164 229.536 162.762 229.536 161.309V148.015C229.536 147.872 229.652 147.756 229.795 147.756" fill="white"/>
<path fill-rule="evenodd" clip-rule="evenodd" d="M227.716 166.083C227.823 166.178 227.832 166.342 227.737 166.449L221.909 172.993C221.814 173.1 221.65 173.109 221.543 173.014C221.436 172.919 221.426 172.755 221.522 172.648L227.35 166.104C227.445 165.997 227.609 165.988 227.716 166.083Z" fill="white"/>
<path fill-rule="evenodd" clip-rule="evenodd" d="M229.794 155.273C229.937 155.273 230.053 155.39 230.053 155.533C230.053 157.108 229.492 158.63 228.466 159.828C228.466 159.828 228.466 159.828 228.466 159.828L227.739 160.681L221.919 167.216C221.824 167.323 221.66 167.332 221.553 167.237C221.446 167.142 221.437 166.978 221.532 166.871L227.348 160.34L228.072 159.491C229.017 158.387 229.534 156.985 229.534 155.533C229.534 155.39 229.651 155.273 229.794 155.273Z" fill="white"/>
<path fill-rule="evenodd" clip-rule="evenodd" d="M229.795 149.508C229.938 149.508 230.054 149.624 230.054 149.767C230.054 151.343 229.493 152.865 228.467 154.063C228.467 154.063 228.467 154.063 228.467 154.063L227.74 154.915L221.92 161.45C221.825 161.557 221.661 161.566 221.554 161.471C221.447 161.376 221.438 161.212 221.533 161.105L227.349 154.574L228.073 153.726C229.018 152.622 229.535 151.219 229.535 149.767C229.535 149.624 229.652 149.508 229.795 149.508Z" fill="white"/>
<path fill-rule="evenodd" clip-rule="evenodd" d="M226.195 183.283C226.195 183.14 226.311 183.023 226.454 183.023H230.924C231.067 183.023 231.183 183.14 231.183 183.283C231.183 183.426 231.067 183.542 230.924 183.542H226.454C226.311 183.542 226.195 183.426 226.195 183.283Z" fill="white"/>
<path d="M248.42 196.255V202.954C246.501 202.871 244.458 202.747 242.353 202.56C234.585 201.886 227.782 200.621 223.977 199.294L224.547 195.54C228.446 194.969 234.969 194.938 242.363 195.581C244.458 195.778 246.491 195.996 248.42 196.255Z" fill="#FE5244"/>
<path d="M198.227 245.998H140.392V188.663C140.392 191.11 149.901 193.091 161.64 193.091C173.38 193.091 182.889 191.11 182.889 188.663V188.652L198.227 245.998Z" fill="#3FB1B5"/>
<path d="M182.734 187.523C182.734 189.981 173.328 191.961 161.713 191.961C150.098 191.961 140.692 189.981 140.692 187.533V187.523C140.723 185.086 150.119 183.105 161.713 183.105C173.307 183.105 182.713 185.086 182.734 187.523Z" fill="#66B0F0"/>
<path d="M182.733 187.566C182.661 189.993 173.275 191.963 161.713 191.963C159.483 191.963 157.347 191.89 155.335 191.756V170.425H144.363C142.963 170.425 141.833 169.295 141.833 167.895V166.184C141.833 165.416 142.175 164.732 142.714 164.265C142.175 163.798 141.833 163.114 141.833 162.347V160.636C141.833 159.962 142.102 159.339 142.538 158.894C142.102 158.437 141.833 157.825 141.833 157.151V155.44C141.833 154.746 142.113 154.113 142.569 153.646C142.113 153.19 141.833 152.558 141.833 151.863V148.762C141.833 147.362 142.963 146.232 144.363 146.232H158.373C158.84 145.962 159.597 145.008 158.311 144.448L155.304 143.743C152.918 142.551 151.404 140.57 151.404 137.895H161.982C163.755 137.895 165.342 139.014 165.944 140.684L182.474 186.83L182.733 187.566Z" fill="#E57281"/>
<path d="M182.785 187.587C182.754 187.555 182.733 187.535 182.733 187.535C182.733 189.982 173.327 191.963 161.712 191.963C159.483 191.963 157.346 191.89 155.334 191.755V183.325C157.346 183.19 159.493 183.117 161.712 183.117C172.186 183.117 180.877 184.735 182.474 186.84C182.515 186.892 182.629 187.172 182.785 187.587Z" fill="#9A3B82"/>
<path d="M158.613 117.402V125.812C158.613 130.385 154.91 134.087 150.337 134.087C145.764 134.087 142.062 130.385 142.062 125.812V117.402C142.062 119.456 145.764 121.115 150.337 121.115C154.91 121.115 158.613 119.456 158.613 117.402Z" fill="white"/>
<path d="M150.337 121.114C154.907 121.114 158.613 119.452 158.613 117.402C158.613 115.352 154.907 113.689 150.337 113.689C145.767 113.689 142.062 115.352 142.062 117.402C142.062 119.452 145.767 121.114 150.337 121.114Z" fill="#FFCF2D"/>
<path fill-rule="evenodd" clip-rule="evenodd" d="M141.75 102.719H158.924V125.802C158.924 128.987 157.191 131.763 154.62 133.247L154.465 132.978C154.465 132.984 154.465 132.99 154.465 132.996L154.609 133.248C153.35 133.969 151.887 134.388 150.337 134.388C148.81 134.388 147.377 133.991 146.13 133.289H146.126L146.081 133.263C146.075 133.26 146.07 133.257 146.064 133.254C146.062 133.252 146.06 133.251 146.057 133.249L146.054 133.247C143.484 131.763 141.75 128.987 141.75 125.802V102.719ZM154.38 132.667C156.727 131.279 158.302 128.726 158.302 125.802V103.341H142.373V125.802C142.373 128.734 143.955 131.292 146.312 132.677H146.313L146.357 132.702C146.364 132.706 146.37 132.709 146.376 132.713C146.378 132.714 146.381 132.716 146.383 132.717L146.385 132.718C147.552 133.387 148.899 133.766 150.337 133.766C151.774 133.766 153.131 133.377 154.3 132.708L154.371 132.667H154.38Z" fill="#FFCF2D"/>
<path d="M150.337 106.743C154.959 106.743 158.706 105.081 158.706 103.031C158.706 100.98 154.959 99.3184 150.337 99.3184C145.715 99.3184 141.968 100.98 141.968 103.031C141.968 105.081 145.715 106.743 150.337 106.743Z" fill="white"/>
<path fill-rule="evenodd" clip-rule="evenodd" d="M142.814 101.764C142.422 102.175 142.228 102.602 142.228 103.03C142.228 103.458 142.422 103.886 142.814 104.296C143.206 104.708 143.787 105.091 144.525 105.418C145.999 106.072 148.054 106.483 150.337 106.483C152.621 106.483 154.675 106.072 156.15 105.418C156.887 105.091 157.468 104.708 157.861 104.296C158.252 103.886 158.447 103.458 158.447 103.03C158.447 102.602 158.252 102.175 157.861 101.764C157.468 101.352 156.887 100.969 156.15 100.642C154.675 99.9882 152.621 99.5771 150.337 99.5771C148.054 99.5771 145.999 99.9882 144.525 100.642C143.787 100.969 143.206 101.352 142.814 101.764ZM144.314 100.168C145.869 99.4786 147.999 99.0586 150.337 99.0586C152.676 99.0586 154.805 99.4786 156.36 100.168C157.137 100.513 157.782 100.93 158.236 101.406C158.691 101.884 158.965 102.433 158.965 103.03C158.965 103.627 158.691 104.177 158.236 104.654C157.782 105.13 157.137 105.548 156.36 105.892C154.805 106.582 152.676 107.002 150.337 107.002C147.999 107.002 145.869 106.582 144.314 105.892C143.537 105.548 142.892 105.13 142.438 104.654C141.983 104.177 141.709 103.627 141.709 103.03C141.709 102.433 141.983 101.884 142.438 101.406C142.892 100.93 143.537 100.513 144.314 100.168Z" fill="#FFCF2D"/>
<path d="M150.337 103.59C151.013 103.59 151.561 103.042 151.561 102.366C151.561 101.69 151.013 101.143 150.337 101.143C149.661 101.143 149.113 101.69 149.113 102.366C149.113 103.042 149.661 103.59 150.337 103.59Z" fill="#FFCF2D"/>
<path d="M147.641 128.581C148.236 128.581 148.719 128.098 148.719 127.502C148.719 126.907 148.236 126.424 147.641 126.424C147.045 126.424 146.562 126.907 146.562 127.502C146.562 128.098 147.045 128.581 147.641 128.581Z" fill="white"/>
<path fill-rule="evenodd" clip-rule="evenodd" d="M147.641 126.684C147.188 126.684 146.821 127.051 146.821 127.504C146.821 127.956 147.188 128.323 147.641 128.323C148.093 128.323 148.46 127.956 148.46 127.504C148.46 127.051 148.093 126.684 147.641 126.684ZM146.303 127.504C146.303 126.765 146.902 126.166 147.641 126.166C148.379 126.166 148.978 126.765 148.978 127.504C148.978 128.242 148.379 128.841 147.641 128.841C146.902 128.841 146.303 128.242 146.303 127.504Z" fill="#FFCF2D"/>
<path d="M154.112 118.295C154.605 118.295 155.004 117.896 155.004 117.404C155.004 116.911 154.605 116.512 154.112 116.512C153.62 116.512 153.22 116.911 153.22 117.404C153.22 117.896 153.62 118.295 154.112 118.295Z" fill="white"/>
<path d="M145.484 124.985C145.976 124.985 146.376 124.586 146.376 124.093C146.376 123.6 145.976 123.201 145.484 123.201C144.991 123.201 144.592 123.6 144.592 124.093C144.592 124.586 144.991 124.985 145.484 124.985Z" fill="#FFCF2D"/>
<path d="M158.291 176.229H142.383C142.092 176.229 142.009 175.846 142.258 175.711L147.817 173.606C148.688 173.274 149.269 172.434 149.269 171.501V138.359C149.269 136.16 148.128 134.097 146.23 132.987C147.443 133.682 148.843 134.076 150.337 134.076C151.84 134.076 153.24 133.671 154.454 132.977C152.546 134.076 151.405 136.15 151.405 138.348V171.49C151.405 172.424 151.986 173.264 152.857 173.595L158.415 175.7C158.664 175.846 158.581 176.229 158.291 176.229Z" fill="white"/>
<path fill-rule="evenodd" clip-rule="evenodd" d="M152.822 133.967C152.037 134.207 151.204 134.337 150.337 134.337C149.47 134.337 148.632 134.208 147.843 133.967C148.918 135.151 149.528 136.721 149.528 138.361V171.503C149.528 172.544 148.881 173.48 147.909 173.85L147.909 173.851L142.374 175.947C142.374 175.947 142.374 175.947 142.373 175.947C142.373 175.948 142.372 175.949 142.372 175.95C142.371 175.953 142.37 175.958 142.371 175.965C142.372 175.968 142.373 175.97 142.374 175.972C142.374 175.972 142.374 175.972 142.375 175.972C142.376 175.972 142.379 175.972 142.383 175.972H158.291C158.295 175.972 158.298 175.972 158.299 175.972C158.299 175.972 158.3 175.972 158.3 175.972C158.301 175.97 158.302 175.968 158.303 175.964C158.304 175.957 158.304 175.949 158.301 175.943C158.3 175.941 158.299 175.939 158.297 175.936C158.297 175.936 158.296 175.935 158.295 175.934L152.765 173.84L152.765 173.84C151.793 173.47 151.146 172.534 151.146 171.493V138.35C151.146 136.718 151.751 135.149 152.822 133.967ZM150.337 133.819C151.793 133.819 153.149 133.427 154.325 132.754L154.583 133.204C152.76 134.254 151.664 136.24 151.664 138.35V171.493C151.664 172.318 152.178 173.061 152.949 173.355L152.949 173.355M147.725 173.366C147.725 173.366 147.725 173.366 147.725 173.366L142.15 175.477L142.135 175.485C141.896 175.615 141.817 175.869 141.866 176.081C141.915 176.297 142.103 176.491 142.383 176.491H158.291C158.572 176.491 158.759 176.296 158.808 176.079C158.857 175.866 158.778 175.614 158.546 175.479L158.528 175.468L152.949 173.355M147.725 173.366C148.496 173.072 149.01 172.328 149.01 171.503V138.361C149.01 136.251 147.915 134.274 146.099 133.213L146.359 132.764C147.534 133.437 148.89 133.819 150.337 133.819" fill="#FFCF2D"/>
<path d="M144.447 90.5745C145.225 90.5745 145.857 89.9431 145.857 89.1642C145.857 88.3853 145.225 87.7539 144.447 87.7539C143.668 87.7539 143.036 88.3853 143.036 89.1642C143.036 89.9431 143.668 90.5745 144.447 90.5745Z" fill="#FFCF2D"/>
<path d="M154.111 92.8477C154.787 92.8477 155.335 92.2998 155.335 91.624C155.335 90.9482 154.787 90.4004 154.111 90.4004C153.436 90.4004 152.888 90.9482 152.888 91.624C152.888 92.2998 153.436 92.8477 154.111 92.8477Z" fill="white"/>
<path fill-rule="evenodd" clip-rule="evenodd" d="M154.112 90.6591C153.579 90.6591 153.147 91.0909 153.147 91.6235C153.147 92.1561 153.579 92.5879 154.112 92.5879C154.645 92.5879 155.076 92.1561 155.076 91.6235C155.076 91.0909 154.645 90.6591 154.112 90.6591ZM152.629 91.6235C152.629 90.8045 153.293 90.1406 154.112 90.1406C154.931 90.1406 155.595 90.8045 155.595 91.6235C155.595 92.4425 154.931 93.1064 154.112 93.1064C153.293 93.1064 152.629 92.4425 152.629 91.6235Z" fill="#FFCF2D"/>
<path d="M148.118 97.6176C148.611 97.6176 149.01 97.2183 149.01 96.7258C149.01 96.2333 148.611 95.834 148.118 95.834C147.626 95.834 147.227 96.2333 147.227 96.7258C147.227 97.2183 147.626 97.6176 148.118 97.6176Z" fill="white"/>
<path fill-rule="evenodd" clip-rule="evenodd" d="M148.117 96.0927C147.768 96.0927 147.485 96.3759 147.485 96.7253C147.485 97.0746 147.768 97.3578 148.117 97.3578C148.467 97.3578 148.75 97.0746 148.75 96.7253C148.75 96.3759 148.467 96.0927 148.117 96.0927ZM146.966 96.7253C146.966 96.0896 147.482 95.5742 148.117 95.5742C148.753 95.5742 149.269 96.0896 149.269 96.7253C149.269 97.361 148.753 97.8763 148.117 97.8763C147.482 97.8763 146.966 97.361 146.966 96.7253Z" fill="#FFCF2D"/>
<path d="M147.652 86.7596C148.059 86.7596 148.389 86.43 148.389 86.0234C148.389 85.6167 148.059 85.2871 147.652 85.2871C147.246 85.2871 146.916 85.6167 146.916 86.0234C146.916 86.43 147.246 86.7596 147.652 86.7596Z" fill="#FFCF2D"/>
<path d="M160.997 149.561V170.435H144.363C142.963 170.435 141.833 169.305 141.833 167.905V166.194C141.833 165.426 142.175 164.742 142.714 164.275C142.175 163.809 141.833 163.124 141.833 162.357V160.646C141.833 159.972 142.102 159.35 142.538 158.904C142.102 158.448 141.833 157.836 141.833 157.162V155.451C141.833 154.756 142.113 154.123 142.569 153.657C142.113 153.2 141.833 152.568 141.833 151.873V149.571H160.997V149.561Z" fill="#E57281"/>
<path fill-rule="evenodd" clip-rule="evenodd" d="M142.123 161.951C142.266 161.951 142.382 162.067 142.382 162.21C142.382 163.654 143.552 164.824 144.995 164.824H158.456C159.899 164.824 161.069 163.654 161.069 162.21C161.069 162.067 161.185 161.951 161.328 161.951C161.472 161.951 161.588 162.067 161.588 162.21C161.588 163.94 160.186 165.342 158.456 165.342H144.995C143.265 165.342 141.863 163.94 141.863 162.21C141.863 162.067 141.979 161.951 142.123 161.951Z" fill="#9A3B82"/>
<path fill-rule="evenodd" clip-rule="evenodd" d="M142.123 156.777C142.266 156.777 142.382 156.893 142.382 157.037C142.382 158.48 143.552 159.65 144.995 159.65H158.456C159.899 159.65 161.069 158.48 161.069 157.037C161.069 156.893 161.185 156.777 161.328 156.777C161.472 156.777 161.588 156.893 161.588 157.037C161.588 158.766 160.186 160.168 158.456 160.168H144.995C143.265 160.168 141.863 158.766 141.863 157.037C141.863 156.893 141.979 156.777 142.123 156.777Z" fill="#9A3B82"/>
<path fill-rule="evenodd" clip-rule="evenodd" d="M142.123 151.604C142.266 151.604 142.382 151.72 142.382 151.863C142.382 153.306 143.552 154.476 144.995 154.476H158.456C159.899 154.476 161.069 153.306 161.069 151.863C161.069 151.72 161.185 151.604 161.328 151.604C161.472 151.604 161.588 151.72 161.588 151.863C161.588 153.593 160.186 154.994 158.456 154.994H144.995C143.265 154.994 141.863 153.593 141.863 151.863C141.863 151.72 141.979 151.604 142.123 151.604Z" fill="#9A3B82"/>
<path fill-rule="evenodd" clip-rule="evenodd" d="M161.328 147.725C161.472 147.725 161.588 147.841 161.588 147.984V167.386C161.588 169.116 160.186 170.518 158.456 170.518H144.86C144.717 170.518 144.601 170.402 144.601 170.258C144.601 170.115 144.717 169.999 144.86 169.999H158.456C159.899 169.999 161.069 168.829 161.069 167.386V147.984C161.069 147.841 161.185 147.725 161.328 147.725Z" fill="#9A3B82"/>
<path fill-rule="evenodd" clip-rule="evenodd" d="M158.268 146.501C157.416 146.501 156.723 147.194 156.723 148.046C156.723 149.03 155.922 149.819 154.95 149.819H147.234C146.635 149.819 146.146 149.33 146.146 148.73C146.146 148.131 146.635 147.642 147.234 147.642H148.614C148.757 147.642 148.873 147.758 148.873 147.901C148.873 148.044 148.757 148.16 148.614 148.16H147.234C146.921 148.16 146.664 148.417 146.664 148.73C146.664 149.044 146.921 149.301 147.234 149.301H154.95C155.638 149.301 156.205 148.742 156.205 148.046C156.205 146.907 157.13 145.982 158.268 145.982H159.523C160.662 145.982 161.587 146.907 161.587 148.046V151.406C161.587 151.549 161.471 151.665 161.328 151.665C161.185 151.665 161.068 151.549 161.068 151.406V148.046C161.068 147.194 160.376 146.501 159.523 146.501H158.268Z" fill="#9A3B82"/>
<path d="M242.778 41.0289L208.255 76.4316L168.454 32.5567L211.895 1.98633L242.778 41.0289Z" fill="#3FB1B5"/>
<path fill-rule="evenodd" clip-rule="evenodd" d="M165.614 32.4115L211.12 0.50946L210.763 0L164.678 32.3082L206.678 78.3421L207.137 77.9228L165.614 32.4115Z" fill="#FFCF2D"/>
<path fill-rule="evenodd" clip-rule="evenodd" d="M218.764 45.4712C218.157 41.3679 214.342 38.5204 210.23 39.1277L207.627 39.5114L207.536 38.8959L210.139 38.5122C210.139 38.5122 210.139 38.5122 210.139 38.5122C214.593 37.8545 218.722 40.9385 219.38 45.38L219.38 45.3804L221.651 60.8521C221.651 60.8521 221.651 60.8522 221.651 60.8521C222.388 65.8611 227.765 68.7287 232.336 66.5381L232.336 66.538L243.194 61.3427L243.462 61.9039L232.605 67.0992" fill="#FFCF2D"/>
<path d="M257.172 64.59C258.282 65.1914 259.329 65.8136 260.283 66.4358C260.117 67.338 259.806 68.2298 259.35 69.0905C258.894 69.9408 258.313 70.6978 257.649 71.3304C256.602 70.8741 255.503 70.3453 254.393 69.7438C248.845 66.7469 244.977 63.1693 245.744 61.7486C246.511 60.328 251.624 61.5931 257.172 64.59Z" fill="#FFCF2D"/>
<path fill-rule="evenodd" clip-rule="evenodd" d="M244.563 60.3898C244.041 60.3898 243.619 60.8123 243.619 61.3334C243.619 61.8546 244.041 62.2771 244.563 62.2771C245.084 62.2771 245.506 61.8546 245.506 61.3334C245.506 60.8123 245.084 60.3898 244.563 60.3898ZM242.997 61.3334C242.997 60.4686 243.698 59.7676 244.563 59.7676C245.427 59.7676 246.128 60.4686 246.128 61.3334C246.128 62.1982 245.427 62.8993 244.563 62.8993C243.698 62.8993 242.997 62.1982 242.997 61.3334Z" fill="#66B0F0"/>
<path d="M121.175 207.156V246.002H76.2812V223.115C77.2561 225.666 88.6842 224.038 100.88 219.372C111.852 215.172 120.324 210.008 121.175 207.156Z" fill="#FE5244"/>
<path d="M121.175 206.026C120.314 208.878 111.852 214.042 100.87 218.242C88.6844 222.908 77.2563 224.536 76.2711 221.985C75.2859 219.434 85.1378 213.658 97.3333 208.992C109.519 204.325 120.2 202.614 121.175 205.165C121.278 205.425 121.278 205.715 121.175 206.026Z" fill="#66B0F0"/>
<path d="M111.665 180.267V213.181L109.187 214.435C106.677 215.659 103.867 216.872 100.88 218.013C95.3943 220.118 90.0535 221.601 85.7602 222.368L88.2283 212.673L92.2521 196.848C90.3439 196.848 88.5395 195.998 87.3261 194.525L70.8062 175.735C73.6373 173.153 77.8684 176.668 77.8684 176.668L76.2817 168.569C75.9084 166.651 76.4684 164.66 77.7854 163.219L82.8046 157.712C83.8002 156.623 85.5943 157.049 86.0091 158.459L89.5765 170.768C89.5765 170.768 98.4328 177.529 100.092 177.529C101.969 177.529 102.622 176.005 99.1172 170.996C96.4832 167.232 99.1172 164.484 99.1172 164.484L107.694 171.701C110.213 173.837 111.665 176.969 111.665 180.267Z" fill="white"/>
<path fill-rule="evenodd" clip-rule="evenodd" d="M82.9962 157.887C82.9961 157.887 82.9961 157.887 82.996 157.887L77.9768 163.393C76.7152 164.774 76.1786 166.682 76.5362 168.519C76.5362 168.52 76.5362 168.52 76.5362 168.52L78.2628 177.333L77.7028 176.868L77.7007 176.866C77.699 176.864 77.6963 176.862 77.6927 176.859C77.6854 176.853 77.6741 176.844 77.6591 176.832C77.629 176.809 77.584 176.773 77.5253 176.729C77.4078 176.641 77.236 176.517 77.0208 176.376C76.5895 176.093 75.9882 175.744 75.3039 175.474C73.9929 174.958 72.4459 174.756 71.1748 175.761L87.5236 194.357L87.5262 194.36C88.6903 195.773 90.4213 196.589 92.2521 196.589H92.5855L88.4796 212.736L86.1111 222.041C90.3167 221.257 95.4825 219.806 100.787 217.771L100.788 217.771C103.767 216.633 106.57 215.423 109.072 214.203C109.072 214.203 109.073 214.202 109.073 214.202L111.406 213.021V180.266C111.406 177.045 109.988 173.986 107.526 171.899C107.526 171.899 107.526 171.899 107.526 171.899L99.1497 164.85C99.0964 164.919 99.0328 165.007 98.9642 165.113C98.7691 165.413 98.5348 165.851 98.3788 166.399C98.0697 167.486 98.0597 169.032 99.3297 170.847C100.211 172.106 100.836 173.154 101.246 174.018C101.655 174.88 101.86 175.576 101.882 176.13C101.904 176.693 101.738 177.128 101.389 177.413C101.052 177.688 100.589 177.788 100.092 177.788C99.8216 177.788 99.4548 177.658 99.0553 177.474C98.6425 177.283 98.1517 177.014 97.6163 176.695C96.5447 176.056 95.2762 175.207 94.0637 174.361C92.8503 173.514 91.6893 172.667 90.832 172.032C90.4032 171.715 90.0502 171.45 89.8043 171.265C89.6813 171.173 89.5852 171.1 89.5197 171.05C89.4869 171.025 89.4618 171.006 89.4449 170.993L89.4193 170.974C89.4192 170.974 89.4192 170.974 89.5765 170.768L89.4192 170.974L89.3513 170.922L85.7604 158.532C85.7603 158.531 85.7602 158.531 85.7602 158.531C85.4014 157.313 83.854 156.949 82.9962 157.887ZM89.8017 170.613L86.2581 158.386L86.2578 158.385C85.7866 156.783 83.7465 156.298 82.6133 157.537L82.613 157.537L77.594 163.043C76.2216 164.546 75.6382 166.62 76.0272 168.619L77.4857 176.063C77.4293 176.025 77.3691 175.984 77.3052 175.942C76.8548 175.647 76.2213 175.278 75.4939 174.992C74.0491 174.423 72.1573 174.152 70.6314 175.543L70.4434 175.715L87.1287 194.693C88.3208 196.138 90.0603 197.006 91.9207 197.099L87.9771 212.608L85.4097 222.694L85.8058 222.623C90.1173 221.853 95.4738 220.365 100.973 218.255C100.973 218.255 100.973 218.255 100.973 218.255L100.88 218.013L100.973 218.255C100.973 218.255 100.973 218.255 100.973 218.255C103.966 217.112 106.783 215.895 109.3 214.668L109.302 214.667L109.304 214.666L111.925 213.34V180.266C111.925 176.892 110.439 173.689 107.861 171.503L99.0982 164.129L98.9301 164.304L99.1172 164.483C98.9301 164.304 98.93 164.304 98.9298 164.304L98.9288 164.305L98.9265 164.308C98.9247 164.31 98.9222 164.312 98.9192 164.316C98.9132 164.322 98.9048 164.331 98.8943 164.343C98.8732 164.367 98.8438 164.401 98.8078 164.446C98.7359 164.534 98.6379 164.664 98.5295 164.83C98.313 165.163 98.0533 165.648 97.8801 166.257C97.5307 167.486 97.5407 169.195 98.9048 171.144C99.7761 172.389 100.384 173.411 100.778 174.241C101.174 175.074 101.346 175.697 101.364 176.151C101.382 176.595 101.252 176.855 101.06 177.012C100.856 177.179 100.534 177.27 100.092 177.27C99.9477 177.27 99.6747 177.188 99.2724 177.003C98.8832 176.823 98.4099 176.564 97.8817 176.25C96.8261 175.621 95.5694 174.779 94.3605 173.936C93.1523 173.092 91.9955 172.249 91.1405 171.616C90.713 171.299 90.3612 171.036 90.1163 170.851C89.9938 170.759 89.8981 170.686 89.8331 170.637C89.8217 170.628 89.8112 170.62 89.8017 170.613Z" fill="#FFCF2D"/>
<path fill-rule="evenodd" clip-rule="evenodd" d="M79.8433 160.598C80.9368 159.397 82.8524 159.867 83.3017 161.415L86.7114 173.179L92.9213 178.147L92.5974 178.551L86.2591 173.481L82.8037 161.56C82.8037 161.56 82.8037 161.56 82.8037 161.56C82.4648 160.392 81.0412 160.052 80.2266 160.947L79.8433 160.598Z" fill="#FFCF2D"/>
<path fill-rule="evenodd" clip-rule="evenodd" d="M76.8462 164.061C77.8853 162.915 79.7717 163.357 80.2013 164.837L83.4248 175.969L88.8167 180.356L88.4894 180.759L82.9718 176.269L79.7034 164.982C79.3863 163.89 77.9957 163.565 77.2304 164.409L76.8462 164.061Z" fill="#FFCF2D"/>
<path fill-rule="evenodd" clip-rule="evenodd" d="M78.0241 176.48L83.9974 181.489L83.6642 181.886L77.6909 176.878L78.0241 176.48Z" fill="#FFCF2D"/>
<path fill-rule="evenodd" clip-rule="evenodd" d="M99.2307 197.108H92.2515V196.59H99.2307V197.108Z" fill="#FFCF2D"/>
<path d="M111.665 204.697V213.398C108.575 215.036 104.893 216.695 100.88 218.24C95.3837 220.345 90.043 221.828 85.7393 222.596L88.2281 212.889C90.9867 211.562 94.077 210.235 97.3437 208.99C102.622 206.979 107.621 205.506 111.665 204.697Z" fill="#FFCF2D"/>
<path fill-rule="evenodd" clip-rule="evenodd" d="M107.483 102.13L104.351 95.258L104.917 95L108.09 101.961L108.095 102.009C108.416 104.742 106.469 107.208 103.738 107.539L103.737 107.54C101.347 107.82 99.6428 109.988 99.9235 112.379C99.9235 112.379 99.9235 112.379 99.9235 112.379L100.38 116.216L99.7619 116.289L99.3056 112.452C98.9849 109.721 100.931 107.243 103.663 106.922C106.039 106.633 107.735 104.501 107.483 102.13Z" fill="#FFCF2D"/>
<path d="M141.117 72.9063L157.731 46.9817L100.59 46.5254L81.8716 96.363L112.775 94.9112L141.117 72.9063Z" fill="#FE5244"/>
<path fill-rule="evenodd" clip-rule="evenodd" d="M98.4575 44.0449L158.419 44.7214L158.411 45.3436L98.8852 44.672L79.1238 96.7744L78.542 96.5538L98.4575 44.0449Z" fill="#FFCF2D"/>
<path d="M140.091 69.019C143.409 74.712 137.768 84.1901 127.481 90.1839C117.193 96.1777 106.169 96.4162 102.851 90.7231C102.395 89.9454 102.115 89.1054 101.98 88.2032C101.15 82.5102 106.574 74.7328 115.461 69.5582C124.349 64.3836 133.786 63.4918 138.328 67.0176C139.044 67.5775 139.635 68.2412 140.091 69.019Z" fill="#66B0F0"/>
<path fill-rule="evenodd" clip-rule="evenodd" d="M128.557 65.3331C124.568 65.757 120.029 67.2573 115.618 69.8256C111.207 72.3937 107.664 75.6033 105.329 78.8658C102.99 82.135 101.889 85.4213 102.287 88.1563C102.417 89.023 102.685 89.8243 103.119 90.5642L103.119 90.565C104.696 93.2692 108.138 94.6197 112.545 94.5236C116.94 94.4277 122.217 92.8891 127.324 89.9136C132.431 86.9382 136.371 83.105 138.62 79.328C140.876 75.5406 141.398 71.8788 139.822 69.1746C139.387 68.4326 138.822 67.7983 138.136 67.2613C135.954 65.568 132.553 64.9085 128.557 65.3331ZM128.491 64.7144C132.57 64.2811 136.158 64.9384 138.518 66.7704L138.519 66.7711C139.264 67.3539 139.882 68.0468 140.359 68.8601L140.359 68.8608C142.102 71.8497 141.462 75.7732 139.155 79.6464C136.842 83.5301 132.817 87.4329 127.637 90.4512C122.456 93.4695 117.078 95.047 112.559 95.1456C108.053 95.2439 104.324 93.8673 102.582 90.8787C102.104 90.0634 101.812 89.1851 101.672 88.2477L101.672 88.2466C101.241 85.2886 102.436 81.84 104.823 78.5038C107.215 75.1607 110.828 71.8943 115.304 69.2879C119.781 66.6816 124.404 65.1487 128.491 64.7144Z" fill="white"/>
<path fill-rule="evenodd" clip-rule="evenodd" d="M127.757 60.6464C123.351 60.7438 118.065 62.2857 112.957 65.2596C107.844 68.2386 103.897 72.0775 101.642 75.8634C99.3821 79.6582 98.8505 83.342 100.441 86.0699L100.441 86.07L101.729 88.2813C101.727 88.2666 101.725 88.2519 101.723 88.2372L101.98 88.2018L101.723 88.2388C101.3 85.2997 102.488 81.8647 104.869 78.5341C107.255 75.1977 110.86 71.936 115.331 69.3328C119.802 66.7296 124.417 65.1995 128.496 64.7661C132.568 64.3334 136.141 64.9909 138.487 66.8114L138.488 66.812C138.499 66.8208 138.51 66.8296 138.521 66.8385L137.233 64.6269C135.643 61.8991 132.174 60.5488 127.757 60.6464ZM140.314 68.8864L137.681 64.3658L137.681 64.3658C135.952 61.4005 132.245 60.0287 127.746 60.1281C123.236 60.2277 117.866 61.802 112.697 64.8115L112.696 64.8116C107.522 67.8263 103.505 71.7233 101.197 75.5981C98.8942 79.4641 98.2643 83.3658 99.9926 86.331C99.9927 86.331 99.9927 86.331 99.9927 86.331L102.605 90.815C102.612 90.8277 102.62 90.8403 102.627 90.8529L103.075 90.5912L103.074 90.5905C103.067 90.5786 103.06 90.5667 103.054 90.5548C102.627 89.8168 102.354 89.0213 102.236 88.1664L102.236 88.1657L102.236 88.1649C101.84 85.4109 102.949 82.1106 105.291 78.8357C107.629 75.5665 111.175 72.3522 115.592 69.7809C120.008 67.2094 124.554 65.7064 128.551 65.2817C132.555 64.8563 135.972 65.5157 138.168 67.2208C138.859 67.7616 139.428 68.4008 139.867 69.1488L140.315 68.8871L140.314 68.8864Z" fill="white"/>
<path d="M99.1792 130.232C98.7747 131.425 98.3392 132.565 97.8829 133.613C96.9599 133.602 96.0266 133.447 95.114 133.136C94.191 132.825 93.3614 132.389 92.6147 131.84C92.8844 130.73 93.2162 129.558 93.6207 128.366C95.6325 122.393 98.4947 117.975 100.03 118.483C101.564 119.002 101.181 124.259 99.1792 130.232Z" fill="#FFCF2D"/>
<path fill-rule="evenodd" clip-rule="evenodd" d="M100.237 116.304C99.7156 116.304 99.2931 116.726 99.2931 117.248C99.2931 117.769 99.7156 118.191 100.237 118.191C100.758 118.191 101.181 117.769 101.181 117.248C101.181 116.726 100.758 116.304 100.237 116.304ZM98.6709 117.248C98.6709 116.383 99.372 115.682 100.237 115.682C101.102 115.682 101.803 116.383 101.803 117.248C101.803 118.112 101.102 118.813 100.237 118.813C99.372 118.813 98.6709 118.112 98.6709 117.248Z" fill="#66B0F0"/>
<path d="M46.695 203.554V245.997H0.0698242V183.529C0.982416 186.588 10.7409 192.966 22.8535 198.296C35.7439 203.989 46.4253 206.333 46.695 203.554Z" fill="#66B0F0"/>
<path d="M46.6951 202.424C46.4151 205.204 35.744 202.85 22.8537 197.167C10.7411 191.827 0.982595 185.449 0.0700031 182.4C0.00778097 182.203 -0.0129635 182.017 0.00777718 181.851C0.277406 179.072 10.9589 181.426 23.8492 187.108C36.7396 192.791 46.9751 199.645 46.6951 202.424Z" fill="#9A3B82"/>
<path d="M19.1014 141.544C20.211 139.262 22.5236 137.811 25.0644 137.811H32.3962L32.7799 167.282L37.8925 194.368L39.5206 202.975C35.2066 202.021 29.3162 200.019 22.8658 197.178C19.2155 195.571 14.6421 193.186 11.5933 191.506V155.647C11.5933 155.159 11.6866 154.672 11.8525 154.216L19.1014 141.544Z" fill="#A0505A"/>
<path d="M39.5079 202.975C35.1939 202.021 29.3035 200.019 22.8531 197.178C19.2028 195.571 14.6295 193.186 11.5806 191.506V182.494C14.9095 183.562 19.8354 185.346 23.8487 187.109C29.262 189.494 33.9909 191.951 37.8902 194.368L39.5079 202.975Z" fill="#73325A"/>
<path d="M66.8134 104.68L27.8105 176.439C26.369 179.094 22.3972 179.726 18.9439 177.849C15.4905 175.972 13.8624 172.302 15.3039 169.636L54.3068 97.877L66.8134 104.68Z" fill="white"/>
<path fill-rule="evenodd" clip-rule="evenodd" d="M54.2028 97.5234L67.1649 104.574L28.0383 176.561C27.2711 177.974 25.8386 178.833 24.1723 179.098C22.5064 179.363 20.5926 179.039 18.82 178.075C15.2997 176.162 13.5384 172.354 15.0757 169.511L15.076 169.511L54.2028 97.5234ZM54.4107 98.2267L15.5318 169.758C14.1863 172.246 15.6813 175.779 19.0676 177.62C20.7483 178.533 22.5471 178.831 24.0908 178.586C25.6342 178.34 26.9083 177.555 27.5826 176.314L66.4618 104.782L54.4107 98.2267Z" fill="#FFCF2D"/>
<path d="M66.8063 104.696C68.2503 102.039 66.6225 98.3645 63.1705 96.4885C59.7185 94.6125 55.7495 95.2455 54.3055 97.9023C52.8615 100.559 54.4893 104.234 57.9413 106.11C61.3934 107.986 65.3623 107.353 66.8063 104.696Z" fill="#66B0F0"/>
<path fill-rule="evenodd" clip-rule="evenodd" d="M54.5328 98.0256C53.1854 100.505 54.6794 104.042 58.0647 105.881C61.4499 107.721 65.2306 107.051 66.5781 104.572C67.9255 102.092 66.4315 98.5555 63.0462 96.7158C59.661 94.8761 55.8802 95.5465 54.5328 98.0256ZM57.8171 106.337C54.2983 104.425 52.5367 100.613 54.0772 97.7781C55.6178 94.9436 59.775 94.348 63.2938 96.2603C66.8126 98.1726 68.5742 101.985 67.0336 104.819C65.4931 107.654 61.3359 108.249 57.8171 106.337Z" fill="#FFCF2D"/>
<path d="M41.333 132.148L59.7611 117.102L59.4708 122.452L65.3715 123.925L51.9315 132.221C55.5404 131.599 59.8856 131.091 63.4633 131.371C67.7256 131.702 66.2945 136.69 64.6974 140.952C68.4307 140.589 80.9478 133.009 85.6663 134.44C88.5492 135.311 87.5122 141.191 86.6826 144.437C87.8855 144.499 93.9729 144.426 93.9729 144.426L90.7581 147.361L92.5211 150.296C85.6767 150.596 85.5937 149.518 86.4544 144.665C86.5996 139.386 80.7507 144.457 68.2959 147.433C62.1256 148.906 62.9241 144.893 64.4485 140.714C63.8367 138.795 59.2634 136.711 44.5686 140.548L41.333 132.148Z" fill="#FE5244"/>
<path d="M41.6026 141.314C44.6095 141.314 47.0471 138.877 47.0471 135.87C47.0471 132.863 44.6095 130.426 41.6026 130.426C38.5958 130.426 36.1582 132.863 36.1582 135.87C36.1582 138.877 38.5958 141.314 41.6026 141.314Z" fill="white"/>
<path fill-rule="evenodd" clip-rule="evenodd" d="M41.6031 130.685C38.7394 130.685 36.4179 133.006 36.4179 135.869C36.4179 138.733 38.7394 141.054 41.6031 141.054C44.4668 141.054 46.7883 138.733 46.7883 135.869C46.7883 133.006 44.4668 130.685 41.6031 130.685ZM35.8994 135.869C35.8994 132.72 38.453 130.166 41.6031 130.166C44.7532 130.166 47.3068 132.72 47.3068 135.869C47.3068 139.019 44.7532 141.573 41.6031 141.573C38.453 141.573 35.8994 139.019 35.8994 135.869Z" fill="#FE5244"/>
<path d="M39.7259 137.811V138.153C39.7259 141.637 36.9052 144.468 33.4104 144.468H26.7837V137.811H39.7259Z" fill="#A0505A"/>
<path d="M47.7944 150.596L46.0418 154.702L43.9988 159.504L42.8892 162.107L41.1988 166.078C41.1573 166.182 41.0951 166.296 41.0433 166.389C41.0433 166.4 41.0329 166.4 41.0329 166.41C40.4936 167.343 39.4462 167.924 38.2951 167.924H24.8655C23.2373 167.924 22.1277 166.379 22.7292 164.958L23.704 162.667L25.8507 157.627L27.6966 153.282L29.3247 149.466C29.8018 148.346 30.9529 147.609 32.2388 147.609H45.6684C47.2862 147.63 48.3958 149.175 47.7944 150.596Z" fill="#A0505A"/>
<path fill-rule="evenodd" clip-rule="evenodd" d="M30.4973 152.565C29.7008 152.565 28.9616 152.907 28.45 153.475C28.3542 153.581 28.1903 153.59 28.0839 153.494C27.9774 153.399 27.9688 153.235 28.0646 153.128C28.673 152.452 29.5516 152.047 30.4973 152.047H43.3254C44.8301 152.047 45.9227 153.344 45.7713 154.73C45.7558 154.872 45.6278 154.975 45.4854 154.959C45.3431 154.944 45.2403 154.816 45.2559 154.673C45.3742 153.591 44.5171 152.565 43.3254 152.565H30.4973Z" fill="#73325A"/>
<path fill-rule="evenodd" clip-rule="evenodd" d="M28.6406 157.034C27.8899 157.034 27.1988 157.328 26.698 157.829C26.5967 157.931 26.4326 157.931 26.3313 157.829C26.2301 157.728 26.2301 157.564 26.3313 157.463C26.9297 156.864 27.7527 156.516 28.6406 156.516H41.4687C43.1106 156.516 44.2537 158.046 43.8341 159.561C43.7959 159.699 43.653 159.78 43.5151 159.742C43.3771 159.703 43.2962 159.561 43.3344 159.423C43.6614 158.242 42.772 157.034 41.4687 157.034H28.6406Z" fill="#73325A"/>
<path fill-rule="evenodd" clip-rule="evenodd" d="M26.577 162.116C25.8554 162.116 25.1826 162.391 24.6808 162.865C24.5767 162.963 24.4126 162.958 24.3143 162.854C24.2161 162.75 24.2209 162.586 24.325 162.488C24.9225 161.924 25.7223 161.598 26.577 161.598H39.4051C41.0934 161.598 42.2718 163.243 41.7238 164.805C41.6764 164.94 41.5285 165.011 41.3934 164.964C41.2583 164.916 41.1872 164.768 41.2345 164.633C41.6614 163.416 40.7449 162.116 39.4051 162.116H26.577Z" fill="#73325A"/>
<path d="M70.8886 29.9846C71.7494 29.0617 72.6101 28.201 73.4605 27.4336C74.2901 27.8173 75.0782 28.3461 75.7938 29.0098C76.499 29.6735 77.0901 30.4201 77.536 31.2186C76.8308 32.1208 76.0427 33.0437 75.1819 33.9666C70.8886 38.5812 66.4605 41.4329 65.2679 40.3337C64.0857 39.2345 66.5953 34.5992 70.8886 29.9846Z" fill="#FFCF2D"/>
<path d="M40.753 66.527L39.3841 67.3774C34.4167 70.4572 24.7412 63.8309 17.7826 52.5796C10.8138 41.3282 9.19599 29.7244 14.153 26.6445L15.5634 25.7734L23.953 50.4537L40.753 66.527Z" fill="#66B0F0"/>
<path d="M54.6487 79.8317L40.7524 66.5271L23.9421 50.4434L15.5525 25.7735L8.05469 3.7168L42.9717 31.8503L54.6487 79.8317Z" fill="#66B0F0"/>
<path fill-rule="evenodd" clip-rule="evenodd" d="M7.41553 2.80273L43.2494 31.675L55.2032 80.7936L40.5377 66.7527L23.6724 50.6164L15.2583 25.8745L7.41553 2.80273ZM8.69468 4.63242L15.8474 25.6741L24.2125 50.272L40.9679 66.3031L54.095 78.8712L42.6947 32.0271L8.69468 4.63242Z" fill="white"/>
<path fill-rule="evenodd" clip-rule="evenodd" d="M8.98461 2.5293L44.4217 30.439L56.0411 78.442L55.4363 78.5884L43.8676 30.7946L8.59961 3.01808L8.98461 2.5293Z" fill="#9A3B82"/>
<path fill-rule="evenodd" clip-rule="evenodd" d="M49.1367 42.2727C48.0866 39.0066 44.6913 37.0966 41.3452 37.9083L41.3449 37.9084C37.8203 38.7598 35.6516 42.3143 36.5032 45.8392L35.8984 45.9853C34.9662 42.1269 37.3397 38.2359 41.1987 37.3036C44.8624 36.4149 48.5805 38.5069 49.7296 42.0839L49.7301 42.0855L52.6446 51.4925L52.6447 51.4928C54.1562 56.388 61.2091 56.0102 62.1947 50.9752L63.8746 42.3375L64.4854 42.4562L62.8054 51.0943L62.8053 51.0947C61.6961 56.7613 53.7537 57.1925 52.0502 51.6766M52.0502 51.6763L49.1372 42.2742C49.137 42.2737 49.1368 42.2732 49.1367 42.2727" fill="#FFCF2D"/>
<path fill-rule="evenodd" clip-rule="evenodd" d="M64.5732 40.4386C64.0521 40.4386 63.6295 40.8611 63.6295 41.3823C63.6295 41.9034 64.0521 42.3259 64.5732 42.3259C65.0944 42.3259 65.5169 41.9034 65.5169 41.3823C65.5169 40.8611 65.0944 40.4386 64.5732 40.4386ZM63.0073 41.3823C63.0073 40.5175 63.7084 39.8164 64.5732 39.8164C65.4381 39.8164 66.1392 40.5175 66.1392 41.3823C66.1392 42.247 65.4381 42.9481 64.5732 42.9481C63.7084 42.9481 63.0073 42.247 63.0073 41.3823Z" fill="#66B0F0"/>
</g>
<defs>
<clipPath id="clip0_4752_2358">
<rect width="354" height="246" fill="white" transform="translate(1566)"/>
</clipPath>
<clipPath id="clip1_4752_2358">
<rect width="354" height="246" fill="white"/>
</clipPath>
</defs>
</svg>
