<svg width="56" height="56" viewBox="0 0 56 56" fill="none" xmlns="http://www.w3.org/2000/svg">
<g clip-path="url(#clip0_4_44)">
<path d="M17.6928 2.11317C24.7246 -0.674735 32.9156 -0.48189 39.7599 2.75618C37.8097 2.46145 35.8259 2.68365 33.8953 3.00832C28.6523 3.99327 23.6696 6.4473 19.775 10.0929C16.0406 13.7443 13.4237 18.5891 12.6847 23.7723C12.1957 27.445 12.6488 31.2973 14.3056 34.6401C16.0128 38.1476 19.018 41.0242 22.6401 42.5088C26.1303 43.9779 30.1789 43.9618 33.7142 42.6504C39.0186 40.7139 42.8299 35.4852 43.2657 29.899C43.54 26.2378 42.6447 22.3429 40.1719 19.5349C37.8114 16.7861 34.3589 15.2721 30.904 14.4104C30.7188 11.0209 32.3241 7.6723 34.8699 5.46811C36.2836 4.19993 38.0383 3.39171 39.8525 2.87419L39.9902 2.82699C45.1841 5.30462 49.5973 9.39064 52.4092 14.4069C54.8184 18.6777 56.0747 23.599 55.9503 28.5013C55.9266 34.8405 53.5446 41.1169 49.4613 45.9639C45.6002 50.5864 40.1997 53.9114 34.3137 55.2429C28.4121 56.5975 22.0626 56.0132 16.5394 53.5183C11.1349 51.1172 6.5562 46.9431 3.64358 41.8088C1.22055 37.542 -0.0612797 32.6225 0.0452017 27.7144C0.056776 21.5992 2.23965 15.5312 6.05099 10.7492C9.09555 6.93086 13.1343 3.89484 17.6928 2.11317Z" fill="#595959"/>
</g>
<defs>
<clipPath id="clip0_4_44">
<rect width="56" height="56" fill="white"/>
</clipPath>
</defs>
</svg>
