<svg width="140" height="30" viewBox="0 0 140 30" fill="none" xmlns="http://www.w3.org/2000/svg">
<g clip-path="url(#clip0_4_59)">
<path d="M55.5695 2.92582H61.7438V8.21212H55.5695V2.92582ZM7.00027 29.3179H13.4497L20.4503 9.84773H14.276L10.3432 22.3588H10.2645L6.33176 9.84773H0L7.00027 29.3179ZM29.6526 13.536C31.8155 13.536 33.3099 15.0956 33.5462 17.3771H25.3267C25.7987 15.0572 27.0962 13.536 29.6526 13.536ZM29.9676 25.5915C27.2537 25.5915 25.6022 23.8799 25.2872 21.2565H39.7992C39.8384 17.0727 38.6979 13.7263 36.2988 11.6348C34.608 10.1137 32.366 9.27701 29.5347 9.27701C23.4785 9.27701 19.2703 13.7263 19.2703 19.5447C19.2703 25.4011 23.2817 29.8884 29.9281 29.8884C32.4451 29.8884 34.4506 29.2419 36.1024 28.1388C37.8723 26.9606 39.1307 25.2489 39.4842 23.5379H33.5854C32.9956 24.8307 31.7763 25.5915 29.9676 25.5915ZM41.2542 29.3179H47.3892V20.3818C47.3892 16.3124 49.9063 14.5249 53.7604 15.0195H53.8783V9.88577C53.5636 9.77164 53.2098 9.7336 52.6201 9.7336C50.221 9.7336 48.6086 10.7982 47.2319 13.0799H47.1138V9.84773H41.2542V29.3179ZM55.5695 29.3179H61.7438V9.84773H55.5695V29.3179ZM63.4359 29.3179H80.6612V24.6409H70.9083V24.5263L80.2288 14.4108V9.84773H63.4359V14.5249H72.8746V14.6391L63.4359 24.8307V29.3179ZM91.5551 25.5532C88.6445 25.5532 87.111 23.1958 87.111 19.6208C87.111 16.008 88.6445 13.6882 91.5551 13.6882C94.465 13.6882 96.0776 16.008 96.0776 19.6208C96.0776 23.1958 94.465 25.5532 91.5551 25.5532ZM91.5943 9.31515C85.184 9.31515 80.8975 13.7643 80.8975 19.6208C80.8975 25.4394 85.184 29.9268 91.5943 29.9268C98.0049 29.9268 102.291 25.4394 102.291 19.6208C102.291 13.7643 98.0049 9.31515 91.5943 9.31515ZM103.629 29.3179H109.764V18.4801C109.764 16.008 111.258 14.2586 113.46 14.2586C115.584 14.2586 116.685 15.704 116.685 17.7576V29.3179H122.82V16.6169C122.82 12.3193 120.146 9.27701 115.82 9.27701C113.067 9.27701 111.14 10.4181 109.685 12.5095H109.567V9.84773H103.629V29.3179Z" fill="#595959"/>
<path d="M122.718 9.84722H125.86L129.002 16.3628L136.857 0.0738373H139.999L130.573 19.6206H127.431L122.718 9.84722Z" fill="#595959"/>
</g>
<defs>
<clipPath id="clip0_4_59">
<rect width="140" height="30" fill="white"/>
</clipPath>
</defs>
</svg>
