<svg width="56" height="56" viewBox="0 0 56 56" fill="none" xmlns="http://www.w3.org/2000/svg">
<g clip-path="url(#clip0_4_39)">
<path d="M28 -0.00390625C12.5341 -0.00390625 0 12.5302 0 27.9961C0 43.462 12.5341 55.9961 28 55.9961C43.4659 55.9961 56 43.4564 56 27.9961C56 12.5358 43.4603 -0.00390625 28 -0.00390625ZM27.9888 3.44915C41.5656 3.44915 52.5694 14.453 52.5694 28.0297C52.5694 41.6065 41.5656 52.6103 27.9888 52.6103C14.412 52.6103 3.40821 41.6009 3.40821 28.0297C3.40821 14.4586 14.412 3.44915 27.9888 3.44915Z" fill="#595959"/>
<path d="M14.043 18.4297V37.4943H21.8011C25.327 37.4943 28.0345 35.2913 28.0345 31.8046C28.0345 28.7328 25.6353 27.5556 25.6353 27.5556C25.6353 27.5556 27.4796 26.3784 27.4796 23.7662C27.4796 20.728 25.0804 18.4297 21.5433 18.4297H14.043ZM18.3369 22.1518H20.6295C22.2608 22.1518 22.9671 22.987 22.9671 24.0241C22.9671 25.1452 22.1599 25.8571 20.7361 25.8571H18.3369V22.1518ZM18.3369 29.6745H20.6295C22.2608 29.6745 22.9671 30.5098 22.9671 31.5468C22.9671 32.6679 22.1599 33.3798 20.7361 33.3798H18.3369V29.6745Z" fill="#595959"/>
<path d="M33.7883 37.4351V22.8044H29.5V18.3984H42.8413V22.8044H38.3681V37.4351H33.7883Z" fill="#595959"/>
</g>
<defs>
<clipPath id="clip0_4_39">
<rect width="56" height="56" fill="white"/>
</clipPath>
</defs>
</svg>
