<svg width="124" height="34" viewBox="0 0 124 34" fill="none" xmlns="http://www.w3.org/2000/svg">
<path d="M13.5477 33.2577C6.80779 33.177 1.29297 32.9516 1.29297 32.7567C1.29297 32.1597 48.5343 31.7615 86.2958 32.0404C105.969 32.1856 122.161 32.3966 122.278 32.5092C122.396 32.6219 122.377 32.8239 122.237 32.9582C121.949 33.235 32.2987 33.482 13.548 33.2577H13.5477ZM11.9492 25.9132C11.9492 25.7408 12.3144 25.2194 12.7608 24.7543C13.2072 24.2893 15.0435 20.3152 16.8414 15.9227C20.569 6.81591 21.54 5.0364 23.7774 3.21103L25.3762 1.90656L21.3259 2.13936C16.696 2.40547 13.9688 3.19338 12.2724 4.75501C10.9822 5.94263 10.1894 8.05551 10.5444 9.36002C10.8571 10.5089 10.0051 10.406 8.6824 9.13507C7.1161 7.63017 7.50859 5.58859 9.75335 3.56392C12.561 1.03166 14.4736 0.682021 27.0813 0.395948C33.1766 0.257638 38.2286 0.178181 38.3074 0.219374C38.3864 0.260567 37.9159 0.631507 37.262 1.04372C36.3721 1.6046 35.0491 1.82789 32.0033 1.93118C28.3231 2.056 27.8232 2.16963 26.7779 3.11889C25.5784 4.20838 23.1596 9.40921 20.0611 17.5609C18.2995 22.1954 16.8845 24.5659 15.4486 25.2884C14.3502 25.841 11.9493 26.2698 11.9493 25.9132H11.9492ZM48.1805 25.9618C48.1805 25.8033 48.5329 25.1843 48.9636 24.5864C49.3944 23.9885 49.8536 23.2228 49.9842 22.8849C50.1148 22.5471 50.6208 21.3077 51.1087 20.1309L51.9958 17.9911L50.0781 19.3976C46.8015 21.8007 43.2884 22.3173 41.5544 20.651C39.7263 18.8946 40.4463 15.0549 43.3078 11.3001C46.5181 7.08747 52.4431 5.53117 52.4431 8.90101C52.4431 10.4471 50.0321 13.0756 46.9219 14.9198C44.3269 16.4588 43.5595 17.7901 44.3988 19.2971C44.9084 20.212 45.8225 20.1968 47.9674 19.238C50.635 18.0455 53.0845 15.293 54.3321 12.0856C54.9341 10.5383 55.4266 9.21493 55.4266 9.14481C55.4266 9.07467 54.995 8.93975 54.4675 8.84498C53.5803 8.68559 53.6087 8.63199 54.8466 8.12949C55.5825 7.83075 56.5204 7.02006 56.9307 6.32795C59.2285 2.45194 62.2852 0.704383 67.2225 0.443907C70.5214 0.269888 70.765 0.3162 71.8047 1.31511C72.4086 1.89536 72.9027 2.57694 72.9027 2.82976C72.9027 3.46063 70.5376 5.68373 69.8665 5.68373C69.4431 5.68373 69.4359 5.57451 69.8337 5.19226C70.115 4.92196 70.3452 4.18902 70.3452 3.56351C70.3452 1.08592 66.4097 0.433791 63.4945 2.42835C62.2858 3.25532 59.689 6.62299 59.689 7.36347C59.689 7.52336 61.6071 7.55263 63.9515 7.42851C68.4753 7.189 69.3423 7.55946 66.9912 8.72757C63.5511 10.4368 60.2505 19.5688 62.9398 19.9374C64.9768 20.2167 68.6404 13.958 68.6404 10.1987C68.6404 9.10952 68.7866 9.03359 72.4764 8.20678C77.1242 7.16525 77.7674 7.30974 77.4682 9.32846C77.3479 10.1394 77.1053 11.1478 76.929 11.5693C76.7526 11.9908 77.5083 11.4113 78.6082 10.2815C80.8378 7.99127 82.5977 7.10385 84.1618 7.48105C86.2255 7.9787 86.0328 9.05496 82.5411 16.5367C81.5689 18.6199 81.0101 20.447 81.0068 21.5537C81.0008 23.5614 80.5498 23.7165 79.0123 22.2393C77.5359 20.8208 77.7855 18.9224 80.0923 14.0253C81.0613 11.9683 81.8541 10.0792 81.8541 9.82738C81.8541 7.96019 77.5579 12.7279 74.821 17.6322C72.8637 21.1397 72.5766 21.4618 71.3044 21.5797C70.5425 21.6503 69.9191 21.5708 69.9191 21.4031C69.9191 21.2354 70.8782 18.7336 72.0504 15.8435C74.571 9.62849 74.6868 8.82822 73.0094 9.21361C71.3464 9.59553 71.1979 9.71941 71.1975 10.7248C71.1971 11.8755 69.0039 16.3381 67.5202 18.2073C65.2211 21.1035 61.4262 22.4105 59.3576 21.0188C57.1953 19.5636 58.7899 13.4576 62.1492 10.3286L63.8385 8.75528L61.3707 8.89243L58.9029 9.02959L57.1187 13.807C54.6524 20.4107 52.6985 24.3444 51.5207 25.0767C50.3533 25.8026 48.18 26.3783 48.18 25.9617L48.1805 25.9618ZM48.2599 12.3766C49.8573 10.7533 50.5129 9.00881 49.6459 8.68911C48.4376 8.2436 45.9774 11.1781 44.9891 14.2435L44.6723 15.2264L45.8935 14.3833C46.5652 13.9196 47.63 13.0165 48.2598 12.3765L48.2599 12.3766ZM35.2371 22.4454C34.3544 21.7783 34.114 21.2417 34.114 19.9394V18.2823L32.6219 19.3757C29.2428 21.8521 26.2256 22.305 24.4533 20.6019C23.4628 19.6503 23.3841 19.3461 23.643 17.4708C24.3257 12.5259 28.2768 8.01548 32.7008 7.13043C33.7479 6.92095 34.2559 7.04867 34.9222 7.68882C35.6493 8.38743 35.7161 8.71147 35.3445 9.73572C34.7991 11.2391 31.4271 14.3227 29.0594 15.483C27.4429 16.2754 27.2939 16.4839 27.2939 17.9541C27.2939 18.8373 27.466 19.6621 27.6764 19.787C28.6934 20.3909 31.0282 19.3492 33.0544 17.3874C34.8173 15.6808 35.7372 14.1732 38.1822 8.98415C40.9882 3.02802 41.2439 2.63977 42.5781 2.30721C43.3577 2.1131 44.1588 2.01003 44.3583 2.07818C44.5577 2.14632 43.3144 5.27249 41.5953 9.02542C37.8914 17.1108 36.9807 19.6173 36.9807 21.7252C36.9807 23.5294 36.78 23.6123 35.2363 22.4456L35.2371 22.4454ZM30.7372 12.8701C32.7159 11.0686 33.5399 9.47299 32.8393 8.79985C32.5184 8.4915 32.1705 8.49272 31.6513 8.80404C29.9868 9.80208 26.8103 15.6329 28.3953 14.7806C28.7222 14.6048 29.7761 13.7451 30.7372 12.87V12.8701ZM110.646 22.4159C109.67 21.678 109.509 21.2853 109.641 19.9586C109.727 19.0901 109.649 18.3795 109.467 18.3795C109.285 18.3795 109.136 18.5627 109.136 18.7865C109.136 19.5928 105.613 21.656 104.236 21.656C102.748 21.656 101.463 20.6121 101.463 19.4022C101.463 18.6931 101.404 18.6985 100.504 19.4889C97.8439 21.8262 94.4533 22.3295 92.7018 20.6469L91.6516 19.6379L90.1042 20.6469C88.3088 21.8176 86.0698 21.9605 85.0395 20.9703C84.0152 19.9862 84.4149 18.3228 86.9914 12.8456C89.1845 8.1837 89.1941 8.17141 90.9575 7.81756C91.9298 7.62242 92.7893 7.50787 92.8675 7.56301C92.9457 7.61815 91.9387 9.95521 90.6297 12.7565C88.1659 18.0291 87.7687 19.6084 88.9062 19.6084C89.9164 19.6084 92.0859 17.9023 92.0859 17.108C92.0859 15.8848 93.7797 12.5386 95.3029 10.7525C97.0472 8.7073 99.8131 7.32178 102.152 7.32178C104.969 7.32178 105.804 9.01647 103.75 10.5685C102.378 11.6057 101.694 11.6605 102.104 10.7006C103.053 8.47974 101.63 7.85739 99.6764 9.63886C96.0518 12.9446 94.2707 20.6632 97.3333 19.7917C99.4151 19.1995 101.41 17.4427 102.756 15.0155C105.672 9.75845 108.747 7.61813 113.467 7.56079C115.029 7.54179 116.447 7.66066 116.619 7.82492C116.791 7.98918 116.438 9.18713 115.833 10.487C113.994 14.441 112.457 19.2936 112.393 21.3471C112.36 22.4173 112.214 23.2932 112.07 23.2934C111.926 23.2936 111.285 22.8986 110.646 22.4156V22.4159ZM107.984 18.1771C109.389 16.7874 113.639 9.05509 113.22 8.6525C112.723 8.17492 110.569 9.12266 109.372 10.3456C107.695 12.0585 105.879 15.2857 105.372 17.4542C104.748 20.1211 105.742 20.3961 107.984 18.1774V18.1771ZM92.6177 4.98864C91.8882 4.72508 91.9452 3.02827 92.7038 2.4234C93.6684 1.65418 94.8555 2.0726 94.8555 3.18185C94.8555 4.21479 93.5014 5.30801 92.6177 4.98868V4.98864Z" fill="#595959"/>
</svg>
