<svg width="56" height="56" viewBox="0 0 56 56" fill="none" xmlns="http://www.w3.org/2000/svg">
<g clip-path="url(#clip0_4_49)">
<path d="M0 0H55.9336C55.933 18.6444 55.9342 37.2888 55.933 55.9332C37.2891 55.9344 18.644 55.9332 0 55.9338V0ZM48.4286 40.4572C48.4263 40.5758 48.4257 40.695 48.428 40.8142C48.6953 40.8124 48.9636 40.8136 49.2309 40.8136C49.2326 41.5556 49.2309 42.2976 49.232 43.0402C49.3781 43.0391 49.5241 43.0391 49.6701 43.0396C49.6701 42.2976 49.6695 41.5556 49.6707 40.8136C49.9385 40.8136 50.2075 40.813 50.4753 40.8136C50.4747 40.695 50.4747 40.577 50.4753 40.4584C49.793 40.4572 49.1108 40.4595 48.4286 40.4572ZM50.9855 40.4578C50.9838 41.3184 50.9838 42.179 50.9855 43.0396C51.1309 43.0396 51.2764 43.0396 51.4224 43.0396C51.4253 42.3345 51.4178 41.6299 51.427 40.9247C51.7197 41.6235 51.984 42.3339 52.2634 43.0379C52.3569 43.0385 52.4509 43.0385 52.5462 43.0385C52.8278 42.3316 53.0962 41.6195 53.3854 40.916C53.3906 41.6235 53.3865 42.3316 53.3883 43.0396C53.5331 43.0391 53.6786 43.0391 53.824 43.0408C53.8292 42.1802 53.8246 41.3196 53.8264 40.459C53.6047 40.4572 53.3831 40.4578 53.162 40.459C52.9156 41.1054 52.6639 41.7502 52.414 42.3955C52.1624 41.749 51.9061 41.1043 51.6544 40.4578C51.4311 40.4584 51.2077 40.4578 50.9855 40.4578ZM6.63926 43.21C5.55071 43.2538 4.45465 43.746 3.80648 44.6411C3.24893 45.3912 3.02614 46.3445 3.03076 47.2673C3.01402 48.136 3.18948 49.0305 3.65468 49.7748C4.03158 50.3839 4.60876 50.8617 5.27251 51.1299C6.07248 51.454 6.96941 51.5122 7.81209 51.3389C8.59359 51.1783 9.33353 50.7696 9.8426 50.1496C10.302 49.601 10.5681 48.9114 10.6766 48.2091C10.7938 47.3934 10.7626 46.546 10.5214 45.755C10.2951 45.0136 9.83625 44.3383 9.19847 43.8922C8.46026 43.3695 7.53389 43.1623 6.63926 43.21ZM14.0895 44.3113C14.0906 44.0096 14.0906 43.708 14.0895 43.4069C13.4378 43.4069 12.7862 43.4035 12.1346 43.4092C12.138 46.0089 12.1351 48.6086 12.1363 51.2082C12.8347 51.2111 13.5331 51.2082 14.2314 51.21C14.2349 49.4841 14.2274 47.7577 14.2355 46.0325C14.3209 45.7786 14.5541 45.595 14.7867 45.4747C15.3206 45.2214 15.9255 45.1995 16.5055 45.1943C16.5055 44.5496 16.5049 43.9049 16.5061 43.2607C15.5919 43.1755 14.6782 43.6268 14.0895 44.3113ZM19.2171 43.472C18.506 43.6988 17.8717 44.1593 17.4434 44.7718C17.9058 45.0418 18.3727 45.3043 18.8385 45.5679C19.2356 45.0763 19.8226 44.7373 20.4575 44.6872C20.9117 44.648 21.456 44.6711 21.7803 45.0389C22.0101 45.302 21.9431 45.6698 21.9518 45.9893C20.8851 46.1148 19.8087 46.2898 18.8148 46.7118C18.2538 46.9547 17.7066 47.303 17.3753 47.8314C17.0054 48.4244 16.9678 49.1825 17.1739 49.8393C17.3413 50.381 17.7441 50.8438 18.2625 51.0758C18.8564 51.3516 19.5357 51.3366 20.1689 51.2359C20.8003 51.1305 21.4052 50.8847 21.9402 50.5341C21.9997 50.7592 22.0591 50.9837 22.1191 51.2094C22.7304 51.2088 23.3416 51.2094 23.9528 51.2094C23.9303 49.4064 23.9448 47.6023 23.9424 45.7994C23.9788 45.268 23.8784 44.7056 23.5442 44.2779C23.1096 43.6994 22.3898 43.4253 21.6967 43.3148C20.8724 43.1968 20.0148 43.2175 19.2171 43.472ZM29.4199 43.3045C28.6874 43.4553 28.0462 43.8663 27.4482 44.2969C27.3882 43.9918 27.3189 43.6878 27.2647 43.3822C26.6938 43.4599 26.1224 43.5387 25.5516 43.6188C25.5505 46.1453 25.5516 48.6713 25.5516 51.1973C26.2344 51.1979 26.9166 51.1973 27.6 51.1973C27.6 49.335 27.6 47.4734 27.6 45.6117C28.0837 45.2099 28.6372 44.8438 29.2756 44.7643C29.597 44.7286 29.9745 44.7476 30.2089 45.0015C30.4403 45.2715 30.4772 45.6462 30.4882 45.9876C30.4894 47.7244 30.4888 49.4605 30.4888 51.1973C31.1756 51.1985 31.8625 51.1973 32.5493 51.1973C32.5493 49.35 32.5493 47.5027 32.5493 45.6554C32.5412 45.2847 32.4904 44.9111 32.3623 44.5623C32.1955 44.0931 31.8498 43.6873 31.3932 43.4812C30.7797 43.2031 30.0732 43.1807 29.4199 43.3045ZM34.7732 44.4397C34.1452 45.2876 33.9253 46.3716 33.9455 47.41C33.9542 48.3576 34.1648 49.3494 34.7668 50.1047C35.2441 50.7189 35.9881 51.0977 36.7569 51.1783C37.3179 51.2318 37.9176 51.2082 38.4192 50.9233C38.7678 50.7293 39.0131 50.4035 39.2192 50.0702C39.2353 50.3983 39.2238 50.727 39.2272 51.0551C39.214 51.4897 39.1505 51.9629 38.8492 52.3003C38.5745 52.6048 38.1462 52.7124 37.7491 52.7136C37.3318 52.7193 36.881 52.7049 36.5197 52.4707C36.3396 52.3549 36.2473 52.1523 36.1942 51.9531C35.5166 52.0619 34.8395 52.1713 34.1619 52.2801C34.2849 52.911 34.7258 53.4464 35.284 53.7492C36.1555 54.2327 37.1915 54.2863 38.1635 54.193C39.0062 54.109 39.8962 53.8695 40.497 53.2369C41.0355 52.6693 41.2041 51.861 41.2162 51.1023C41.2162 48.5291 41.2162 45.9565 41.2162 43.3833C40.635 43.3868 40.0538 43.3747 39.4731 43.3896C39.4281 43.6769 39.3715 43.963 39.3213 44.2503C39.1412 43.8778 38.7903 43.6193 38.414 43.4674C37.9194 43.2653 37.3739 43.2175 36.8435 43.248C36.0193 43.3102 35.2551 43.7759 34.7732 44.4397ZM43.3419 44.3809C42.7763 45.0527 42.5241 45.9329 42.4612 46.7958C42.4006 47.7376 42.4889 48.7197 42.92 49.5734C43.2542 50.2388 43.8279 50.784 44.5223 51.0591C45.414 51.4178 46.4148 51.4143 47.3441 51.218C48.2537 51.0194 49.1097 50.4743 49.5726 49.6522C49.0675 49.3753 48.5631 49.0956 48.0604 48.8147C47.8347 49.1376 47.5599 49.4398 47.2038 49.6188C46.8027 49.8226 46.3346 49.8485 45.8965 49.7852C45.4723 49.7236 45.0712 49.4905 44.8397 49.1261C44.554 48.6782 44.4755 48.1313 44.472 47.6092C46.1967 47.6104 47.9218 47.6092 49.6476 47.6098C49.7059 46.923 49.6401 46.223 49.4421 45.5628C49.2245 44.8466 48.7824 44.1835 48.1441 43.7788C47.3614 43.2734 46.3837 43.164 45.4752 43.2705C44.6619 43.3684 43.8677 43.7425 43.3419 44.3809Z" fill="#595959"/>
<path d="M48.4278 40.457C49.1101 40.4593 49.7923 40.457 50.4745 40.4582C50.4739 40.5768 50.4739 40.6948 50.4745 40.8134C50.2067 40.8128 49.9377 40.8134 49.6699 40.8134C49.6688 41.5554 49.6693 42.2974 49.6693 43.0394C49.5233 43.0389 49.3773 43.0389 49.2313 43.04C49.2301 42.2974 49.2318 41.5554 49.2301 40.8134C48.9629 40.8134 48.6945 40.8122 48.4273 40.8139C48.4249 40.6948 48.4255 40.5756 48.4278 40.457Z" fill="white"/>
<path d="M50.9857 40.457C51.2079 40.457 51.4313 40.4576 51.6546 40.457C51.9063 41.1035 52.1625 41.7482 52.4142 42.3947C52.6641 41.7494 52.9158 41.1046 53.1622 40.4582C53.3833 40.457 53.6049 40.4565 53.8265 40.4582C53.8248 41.3188 53.8294 42.1794 53.8242 43.04C53.6788 43.0383 53.5333 43.0383 53.3885 43.0389C53.3867 42.3308 53.3908 41.6227 53.3856 40.9153C53.0964 41.6187 52.828 42.3308 52.5464 43.0377C52.4511 43.0377 52.3571 43.0377 52.2635 43.0371C51.9842 42.3331 51.7198 41.6227 51.4272 40.9239C51.418 41.6291 51.4255 42.3337 51.4226 43.0389C51.2766 43.0389 51.1311 43.0389 50.9857 43.0389C50.9839 42.1782 50.9839 41.3176 50.9857 40.457Z" fill="white"/>
<path fill-rule="evenodd" clip-rule="evenodd" d="M5.92391 45.2026C6.11273 45.0812 6.32855 45.0013 6.55267 44.972C7.05251 44.8977 7.61179 44.98 8.00312 45.3225C8.37078 45.6386 8.5497 46.1158 8.62993 46.5821C8.71478 47.1065 8.71131 47.6465 8.60915 48.1674C8.51565 48.6251 8.31133 49.0868 7.93039 49.3752C7.9042 49.3946 7.87745 49.4131 7.8502 49.4306C7.43589 49.6957 6.906 49.7391 6.43132 49.6415C6.01748 49.5574 5.64982 49.2886 5.43858 48.9236C5.13383 48.3952 5.06687 47.7677 5.07957 47.1678C5.0992 46.629 5.19443 46.0683 5.50206 45.6136C5.61333 45.4486 5.75817 45.3096 5.92391 45.2026Z" fill="#595959"/>
<path d="M14.0877 44.3109C14.6764 43.6264 15.5901 43.1751 16.5043 43.2603C16.5032 43.9045 16.5038 44.5492 16.5038 45.1939C15.9237 45.1991 15.3188 45.221 14.7849 45.4743C14.5523 45.5946 14.3192 45.7782 14.2337 46.0321C14.2257 47.7573 14.2332 49.4837 14.2297 51.2096C13.5313 51.2078 12.8329 51.2107 12.1345 51.2078C12.1334 48.6082 12.1363 46.0085 12.1328 43.4088C12.7844 43.4031 13.4361 43.4065 14.0877 43.4065C14.0889 43.7076 14.0889 44.0092 14.0877 44.3109Z" fill="white"/>
<path fill-rule="evenodd" clip-rule="evenodd" d="M19.232 48.3093C19.412 47.999 19.7347 47.8062 20.0556 47.6669C20.6397 47.4257 21.2694 47.3186 21.8933 47.2397C21.8944 47.5292 21.8942 47.8188 21.894 48.1085C21.8938 48.4269 21.8935 48.7453 21.895 49.0638C21.3734 49.531 20.7081 49.898 19.9909 49.8848C19.7503 49.8911 19.5119 49.7886 19.348 49.6142C19.0624 49.2936 19.0004 48.8022 19.1767 48.414C19.1931 48.3782 19.2115 48.3432 19.232 48.3093Z" fill="#595959"/>
<path d="M29.4195 43.3062C30.0729 43.1824 30.7794 43.2048 31.3929 43.4829C31.8494 43.689 32.1952 44.0948 32.362 44.564C32.4901 44.9128 32.5409 45.2864 32.549 45.6571C32.549 47.5044 32.549 49.3517 32.549 51.199C31.8621 51.199 31.1753 51.2002 30.4885 51.199C30.4885 49.4622 30.489 47.7261 30.4879 45.9893C30.4769 45.6479 30.44 45.2732 30.2085 45.0032C29.9742 44.7493 29.5967 44.7303 29.2752 44.766C28.6369 44.8455 28.0834 45.2116 27.5997 45.6134C27.5997 47.4751 27.5997 49.3367 27.5997 51.199C26.9163 51.199 26.2341 51.1996 25.5513 51.199C25.5513 48.673 25.5501 46.147 25.5513 43.6205C26.1221 43.5405 26.6935 43.4616 27.2644 43.3839C27.3186 43.6896 27.3879 43.9935 27.4479 44.2986C28.0459 43.868 28.6871 43.457 29.4195 43.3062Z" fill="white"/>
<path fill-rule="evenodd" clip-rule="evenodd" d="M38.0112 49.4644C38.2472 49.4024 38.4678 49.2855 38.6403 49.1102C38.9497 48.7942 39.094 48.3567 39.1673 47.9289C39.2325 47.5231 39.2498 47.1098 39.2337 46.6993C39.199 46.1392 39.0357 45.5561 38.634 45.1462C38.2923 44.7899 37.7671 44.635 37.2845 44.7237C37.2512 44.7297 37.2181 44.7371 37.1854 44.7458C36.9239 44.8156 36.6856 44.9671 36.511 45.174C36.2282 45.5033 36.0971 45.9327 36.0371 46.3553C35.9736 46.8359 35.9869 47.3235 36.0319 47.8053C36.0873 48.2785 36.201 48.7817 36.5439 49.1345C36.799 49.4114 37.1868 49.5283 37.5551 49.5168C37.7077 49.5205 37.8625 49.5034 38.0112 49.4644Z" fill="#595959"/>
<path fill-rule="evenodd" clip-rule="evenodd" d="M46.7645 44.757C46.506 44.6504 46.2153 44.6139 45.9394 44.6344C45.5682 44.6568 45.1965 44.8082 44.9472 45.0897C44.6578 45.4106 44.5342 45.8458 44.5 46.2679C45.1659 46.2693 45.8317 46.2692 46.4976 46.269C46.8787 46.2689 47.2599 46.2688 47.641 46.269C47.6301 45.8528 47.5348 45.4141 47.2491 45.097C47.1152 44.945 46.948 44.8333 46.7645 44.757Z" fill="#595959"/>
</g>
<defs>
<clipPath id="clip0_4_49">
<rect width="56" height="56" fill="white"/>
</clipPath>
</defs>
</svg>
